<?xml version="1.0" encoding="UTF-8"?>
<svg version="1.1" xmlns="http://www.w3.org/2000/svg" width="94" height="147">
<path d="M0 0 C2.625 1.25 2.625 1.25 4 3.1875 C4.625 5.25 4.625 5.25 4.625 8.25 C6.605 7.92 8.585 7.59 10.625 7.25 C10.7075 6.30125 10.79 5.3525 10.875 4.375 C11.625 1.25 11.625 1.25 13.26171875 0.0703125 C16.32204063 -0.99194799 18.95205538 -1.0147233 22.1875 -1 C23.32316406 -1.00515625 24.45882812 -1.0103125 25.62890625 -1.015625 C28.625 -0.75 28.625 -0.75 31.625 1.25 C31.8125 4.875 31.8125 4.875 31.625 8.25 C33.935 8.58 36.245 8.91 38.625 9.25 C38.58375 8.321875 38.5425 7.39375 38.5 6.4375 C38.625 3.25 38.625 3.25 40.625 0.25 C46.12036357 -1.34616369 52.09932821 -0.91329932 57.625 0.25 C59.9323077 3.71096156 59.88194718 5.07941097 59.890625 9.16015625 C59.89449219 10.89168945 59.89449219 10.89168945 59.8984375 12.65820312 C59.89070313 13.86412109 59.88296875 15.07003906 59.875 16.3125 C59.88660156 18.12717773 59.88660156 18.12717773 59.8984375 19.97851562 C59.89585938 21.13158203 59.89328125 22.28464844 59.890625 23.47265625 C59.88836914 24.53234619 59.88611328 25.59203613 59.88378906 26.68383789 C59.625 29.25 59.625 29.25 57.625 31.25 C54.06289477 39.5349547 54.2086703 47.91066376 54.2734375 56.76757812 C54.15551946 64.55508171 54.15551946 64.55508171 51.29296875 68.3046875 C50.41253906 68.94664063 49.53210938 69.58859375 48.625 70.25 C48.03074219 70.77207031 47.43648438 71.29414062 46.82421875 71.83203125 C45.42447917 72.97135417 44.02473958 74.11067708 42.625 75.25 C45.97335699 78.7665393 49.58340229 81.38155237 53.6015625 84.078125 C57.09046674 87.82297203 57.62257587 92.01171796 57.62792969 96.95507812 C57.45662591 100.95576318 57.26505869 104.94666394 56.93164062 108.9375 C56.8151707 111.94597738 56.8100512 114.34699265 57.625 117.25 C59.77528986 119.29713153 61.81552764 120.54458827 64.47631836 121.84912109 C67.23805331 123.6496932 67.88447225 125.06822269 68.625 128.25 C67.965 129.24 67.305 130.23 66.625 131.25 C63.79511387 131.54681708 61.18374464 131.64895765 58.3515625 131.62231445 C57.49616882 131.62596512 56.64077515 131.62961578 55.75946045 131.63337708 C52.9227737 131.64150457 50.08665425 131.62785434 47.25 131.61328125 C45.28466797 131.61276291 43.31933542 131.61327961 41.35400391 131.61479187 C37.23136677 131.61470205 33.10892479 131.6042523 28.98632812 131.58618164 C23.69312341 131.56349415 18.40020406 131.5629493 13.10696411 131.56969929 C9.04758147 131.57303554 4.98826428 131.56641567 0.92889404 131.55657005 C-1.02321022 131.55271182 -2.97532176 131.5515724 -4.9274292 131.5531559 C-7.65228224 131.5535254 -10.37676492 131.54093872 -13.1015625 131.5246582 C-14.32036102 131.52837433 -14.32036102 131.52837433 -15.56378174 131.53216553 C-21.14625949 131.47874051 -21.14625949 131.47874051 -23.375 129.25 C-23.27906167 125.70028189 -22.42220805 124.30638739 -20.125 121.5625 C-17.50804313 119.36187717 -15.53345947 118.41057487 -12.375 117.25 C-12.39071045 116.42798096 -12.4064209 115.60596191 -12.42260742 114.7590332 C-12.48505073 111.02692572 -12.52402136 107.29492828 -12.5625 103.5625 C-12.58763672 102.26892578 -12.61277344 100.97535156 -12.63867188 99.64257812 C-12.64833984 98.39541016 -12.65800781 97.14824219 -12.66796875 95.86328125 C-12.6836792 94.71641846 -12.69938965 93.56955566 -12.71557617 92.38793945 C-12.2223073 87.84314748 -10.50118302 85.28785494 -7.18359375 82.23046875 C-6.40113281 81.63878906 -5.61867188 81.04710938 -4.8125 80.4375 C-3.63494141 79.53064453 -3.63494141 79.53064453 -2.43359375 78.60546875 C-0.375 77.25 -0.375 77.25 1.625 77.25 C1.625 76.26 1.625 75.27 1.625 74.25 C0.573125 73.9715625 0.573125 73.9715625 -0.5 73.6875 C-4.42608917 71.72445542 -6.94971602 68.88792597 -9.375 65.25 C-10.33057631 62.19390002 -10.53483729 59.33602041 -10.62109375 56.14453125 C-10.67040039 54.66823242 -10.67040039 54.66823242 -10.72070312 53.16210938 C-10.78131978 51.11533014 -10.83867597 49.06845144 -10.89257812 47.02148438 C-11.10508375 40.85882128 -11.59010373 35.17343541 -13.375 29.25 C-14.365 28.92 -15.355 28.59 -16.375 28.25 C-16.51986019 23.97952167 -16.60892616 19.70967167 -16.6875 15.4375 C-16.7503418 13.61508789 -16.7503418 13.61508789 -16.81445312 11.75585938 C-16.83056641 10.59248047 -16.84667969 9.42910156 -16.86328125 8.23046875 C-16.88946533 7.15692139 -16.91564941 6.08337402 -16.94262695 4.97729492 C-16.375 2.25 -16.375 2.25 -14.09057617 0.39575195 C-9.2769064 -1.6352246 -4.95011652 -1.10002589 0 0 Z M-2.375 36.25 C-2.40396822 40.68748635 -2.42178788 45.12494847 -2.4375 49.5625 C-2.44587891 50.82513672 -2.45425781 52.08777344 -2.46289062 53.38867188 C-2.46611328 54.59716797 -2.46933594 55.80566406 -2.47265625 57.05078125 C-2.47789307 58.16622314 -2.48312988 59.28166504 -2.48852539 60.4309082 C-2.50249254 63.33052062 -2.50249254 63.33052062 -1.375 66.25 C0.57905928 67.64979645 2.58761451 68.97452435 4.625 70.25 C6.56465879 71.60107268 8.50205138 72.955403 10.4375 74.3125 C16.49182453 78.53569475 22.66860367 82.55617033 28.88793945 86.53149414 C30.80698408 87.76104012 32.71683842 89.00366476 34.625 90.25 C35.83542969 91.0234375 35.83542969 91.0234375 37.0703125 91.8125 C39.60118058 94.15259913 39.37318109 96.46256896 39.60546875 99.7578125 C39.63577651 103.62508251 39.38768829 107.45350718 38.625 111.25 C36.74596752 113.12903248 33.5369394 112.38053475 31.03515625 112.3828125 C30.3754332 112.38376923 29.71571014 112.38472595 29.03599548 112.38571167 C27.63800969 112.38639336 26.24002076 112.38453986 24.84204102 112.38037109 C22.69996018 112.37503106 20.55808983 112.38031199 18.41601562 112.38671875 C17.05989537 112.3860578 15.70377524 112.38477629 14.34765625 112.3828125 C13.10765869 112.38168457 11.86766113 112.38055664 10.59008789 112.37939453 C7.625 112.25 7.625 112.25 5.625 111.25 C4.97482415 107.63791193 4.59919324 104.02142587 4.1875 100.375 C3.9090625 98.828125 3.9090625 98.828125 3.625 97.25 C1.37191447 95.85229416 1.37191447 95.85229416 -2.375 97.25 C-2.375 104.51 -2.375 111.77 -2.375 119.25 C4.02989985 119.89048998 10.11200643 120.41376126 16.5 120.375 C17.29575439 120.37306641 18.09150879 120.37113281 18.91137695 120.36914062 C28.16238643 120.30426552 37.39182275 119.79484502 46.625 119.25 C46.77386815 115.21185605 46.88245089 111.17478395 46.95458984 107.13452148 C46.9846733 105.7618425 47.02555334 104.38935437 47.07763672 103.01733398 C47.66848378 94.49141965 47.66848378 94.49141965 44.12109375 87.17578125 C42.96738281 86.54027344 41.81367187 85.90476563 40.625 85.25 C39.3092938 84.35147304 38.00108967 83.44189578 36.69921875 82.5234375 C35.23851767 81.5549672 33.77620573 80.58892318 32.3125 79.625 C31.53720947 79.10212402 30.76191895 78.57924805 29.96313477 78.04052734 C25.95658092 75.35653704 21.936818 72.8270657 17.703125 70.515625 C6.32056032 64.14679506 6.32056032 64.14679506 4.30859375 58.66015625 C3.83834139 52.98736513 4.68678964 47.82908786 5.625 42.25 C10.0032512 42.22530919 14.38146567 42.20714443 18.75976562 42.19506836 C20.24968166 42.19003486 21.73959274 42.18320758 23.22949219 42.17456055 C25.36915304 42.16245195 27.50874868 42.15676193 29.6484375 42.15234375 C30.93669434 42.14710693 32.22495117 42.14187012 33.55224609 42.13647461 C36.625 42.25 36.625 42.25 38.625 43.25 C39.2578125 45.97265625 39.2578125 45.97265625 39.75 49.3125 C40.00136719 50.96958984 40.00136719 50.96958984 40.2578125 52.66015625 C40.37898438 53.51480469 40.50015625 54.36945312 40.625 55.25 C42.605 55.25 44.585 55.25 46.625 55.25 C46.625 48.65 46.625 42.05 46.625 35.25 C39.96810173 35.22533358 33.31122989 35.20715605 26.65429688 35.19506836 C24.38834164 35.19003074 22.12238967 35.18320048 19.85644531 35.17456055 C16.60480953 35.16247004 13.35321661 35.15676608 10.1015625 35.15234375 C9.08381744 35.14718246 8.06607239 35.14202118 7.01748657 35.13670349 C6.07666229 35.13662796 5.13583801 35.13655243 4.16650391 35.13647461 C3.33599518 35.134254 2.50548645 35.13203339 1.64981079 35.12974548 C-0.44464964 35.12090818 -0.44464964 35.12090818 -2.375 36.25 Z M10.625 48.25 C9.85273634 51.7554055 9.73395784 54.76264533 10.625 58.25 C13.51169822 61.41658721 16.65100401 63.64299724 20.625 65.25 C25.25442686 64.94654672 28.41876539 62.92616289 32.015625 60.140625 C34.46903983 57.25845807 34.29587191 54.85580173 34.00390625 51.203125 C33.70231528 49.18072614 33.70231528 49.18072614 32.625 47.25 C29.14585059 47.22112186 25.66673169 47.20324313 22.1875 47.1875 C21.19427734 47.17912109 20.20105469 47.17074219 19.17773438 47.16210938 C18.23349609 47.15888672 17.28925781 47.15566406 16.31640625 47.15234375 C15.44185791 47.14710693 14.56730957 47.14187012 13.66625977 47.13647461 C11.63059794 47.02215191 11.63059794 47.02215191 10.625 48.25 Z M12.78515625 93.80859375 C10.27820588 96.64194633 9.9321307 97.95583986 9.9375 101.6875 C10.07548852 104.77784362 10.07548852 104.77784362 11.625 107.25 C13.08978506 107.34883336 14.55922958 107.38079289 16.02734375 107.3828125 C16.91744141 107.38410156 17.80753906 107.38539062 18.72460938 107.38671875 C19.66111328 107.38285156 20.59761719 107.37898438 21.5625 107.375 C22.49513672 107.37886719 23.42777344 107.38273437 24.38867188 107.38671875 C25.72575195 107.38478516 25.72575195 107.38478516 27.08984375 107.3828125 C28.32142212 107.38112061 28.32142212 107.38112061 29.57788086 107.37939453 C31.69116024 107.3793784 31.69116024 107.3793784 33.625 106.25 C34.34419255 102.70488924 34.54734941 99.76988479 33.625 96.25 C30.36471732 92.89870779 26.73606314 90.45985076 22.625 88.25 C18.69578295 88.25 15.72607683 91.44316267 12.78515625 93.80859375 Z " fill="#C1A265" transform="translate(25.375,6.75)"/>
<path d="M0 0 C22.11 0 44.22 0 67 0 C66.67 0.99 66.34 1.98 66 3 C64.35 3 62.7 3 61 3 C60.67 6.63 60.34 10.26 60 14 C59.34 14 58.68 14 58 14 C58 11.69 58 9.38 58 7 C57.04859131 7.03029297 56.09718262 7.06058594 55.11694336 7.09179688 C51.51056985 7.2059886 47.90410469 7.31703819 44.29760742 7.42724609 C42.75103223 7.47492163 41.20448137 7.52339505 39.65795898 7.57275391 C29.43403966 7.8983776 19.22949099 8.06783857 9 8 C9.33 8.99 9.66 9.98 10 11 C10.08315752 13.06498892 10.10735878 15.1325789 10.09765625 17.19921875 C10.09443359 18.40771484 10.09121094 19.61621094 10.08789062 20.86132812 C10.07951172 22.12396484 10.07113281 23.38660156 10.0625 24.6875 C10.05798828 25.96173828 10.05347656 27.23597656 10.04882812 28.54882812 C10.03702873 31.69926564 10.02056597 34.84960949 10 38 C10.77239014 38.29261719 11.54478027 38.58523437 12.34057617 38.88671875 C15.45182188 40.18914053 17.66921647 41.90631008 20.3125 44 C25.13610937 47.70267172 30.06868997 51.00814201 35.25 54.1875 C36.61098954 55.03335163 37.97167684 55.87968979 39.33203125 56.7265625 C41.46505666 58.05365755 43.60435447 59.36073209 45.76171875 60.6484375 C48.61257235 62.50123643 50.56742968 63.78136104 51.7265625 67.046875 C52.0801962 69.4318465 52.11839129 71.59271053 52 74 C51.96132812 74.82757813 51.92265625 75.65515625 51.8828125 76.5078125 C51.39248252 82.60751748 51.39248252 82.60751748 49 85 C46.06665039 85.25878906 46.06665039 85.25878906 42.34765625 85.265625 C41.69171982 85.26753845 41.03578339 85.2694519 40.35997009 85.27142334 C38.9721539 85.27278468 37.58432495 85.26909174 36.1965332 85.26074219 C34.07408939 85.25005834 31.95249525 85.2606296 29.83007812 85.2734375 C28.48176897 85.27211556 27.13346034 85.26955245 25.78515625 85.265625 C24.55676025 85.26336914 23.32836426 85.26111328 22.06274414 85.25878906 C19 85 19 85 16 83 C15.26953125 79.7421875 15.26953125 79.7421875 14.8125 75.875 C14.65394531 74.59367187 14.49539062 73.31234375 14.33203125 71.9921875 C14.22246094 71.00476563 14.11289062 70.01734375 14 69 C12.35 69 10.7 69 9 69 C9 75.27 9 81.54 9 88 C8.01 88.495 8.01 88.495 7 89 C6.97112186 85.52085059 6.95324313 82.04173169 6.9375 78.5625 C6.92912109 77.56927734 6.92074219 76.57605469 6.91210938 75.55273438 C6.90888672 74.60849609 6.90566406 73.66425781 6.90234375 72.69140625 C6.89710693 71.81685791 6.89187012 70.94230957 6.88647461 70.04125977 C7 68 7 68 8 67 C7.34 66.67 6.68 66.34 6 66 C6.1546875 67.8871875 6.1546875 67.8871875 6.3125 69.8125 C6.48828125 71.95703125 6.48828125 71.95703125 6 74 C4.7625 74.680625 4.7625 74.680625 3.5 75.375 C2.675 75.91125 1.85 76.4475 1 77 C0.39518228 79.96381518 0.39518228 79.96381518 0.6875 83.1875 C0.73261719 84.27417969 0.77773437 85.36085938 0.82421875 86.48046875 C0.88222656 87.31191406 0.94023437 88.14335938 1 89 C0.34 89 -0.32 89 -1 89 C-1.08719631 84.43762069 -1.14045922 79.87545614 -1.1875 75.3125 C-1.21263672 74.01892578 -1.23777344 72.72535156 -1.26367188 71.39257812 C-1.27333984 70.14541016 -1.28300781 68.89824219 -1.29296875 67.61328125 C-1.3086792 66.46641846 -1.32438965 65.31955566 -1.34057617 64.13793945 C-0.8473073 59.59314748 0.87381698 57.03785494 4.19140625 53.98046875 C4.97386719 53.38878906 5.75632812 52.79710937 6.5625 52.1875 C7.34753906 51.58292969 8.13257813 50.97835937 8.94140625 50.35546875 C11 49 11 49 13 49 C13 48.01 13 47.02 13 46 C12.278125 45.773125 11.55625 45.54625 10.8125 45.3125 C7.46790687 43.75168987 5.48396041 41.6968713 3 39 C3.33 38.34 3.66 37.68 4 37 C5.98 37.99 7.96 38.98 10 40 C9.34 39.01 8.68 38.02 8 37 C6.94067753 30.91224807 6.84754924 24.91727041 6.875 18.75 C6.87113281 17.86570312 6.86726563 16.98140625 6.86328125 16.0703125 C6.86457031 15.21695313 6.86585937 14.36359375 6.8671875 13.484375 C6.86831543 12.71834961 6.86944336 11.95232422 6.87060547 11.16308594 C7.00041515 8.99306 7.40359596 7.08593348 8 5 C5.08235 3.0549 3.37462715 2.54723683 0 2 C0 1.34 0 0.68 0 0 Z M24.16015625 65.55859375 C21.65320588 68.39194633 21.3071307 69.70583986 21.3125 73.4375 C21.45048852 76.52784362 21.45048852 76.52784362 23 79 C24.46478506 79.09883336 25.93422958 79.13079289 27.40234375 79.1328125 C28.29244141 79.13410156 29.18253906 79.13539062 30.09960938 79.13671875 C31.03611328 79.13285156 31.97261719 79.12898438 32.9375 79.125 C33.87013672 79.12886719 34.80277344 79.13273437 35.76367188 79.13671875 C37.10075195 79.13478516 37.10075195 79.13478516 38.46484375 79.1328125 C39.69642212 79.13112061 39.69642212 79.13112061 40.95288086 79.12939453 C43.06616024 79.1293784 43.06616024 79.1293784 45 78 C45.71919255 74.45488924 45.92234941 71.51988479 45 68 C41.73971732 64.64870779 38.11106314 62.20985076 34 60 C30.07078295 60 27.10107683 63.19316267 24.16015625 65.55859375 Z " fill="#BEA163" transform="translate(14,35)"/>
<path d="M0 0 C22.11 0 44.22 0 67 0 C66.67 0.99 66.34 1.98 66 3 C64.35 3 62.7 3 61 3 C60.67 6.63 60.34 10.26 60 14 C59.34 14 58.68 14 58 14 C58 11.69 58 9.38 58 7 C57.04859131 7.03029297 56.09718262 7.06058594 55.11694336 7.09179688 C51.51056985 7.2059886 47.90410469 7.31703819 44.29760742 7.42724609 C42.75103223 7.47492163 41.20448137 7.52339505 39.65795898 7.57275391 C29.43403966 7.8983776 19.22949099 8.06783857 9 8 C9.33 8.99 9.66 9.98 10 11 C10.08315752 13.06498892 10.10735878 15.1325789 10.09765625 17.19921875 C10.09443359 18.40771484 10.09121094 19.61621094 10.08789062 20.86132812 C10.07951172 22.12396484 10.07113281 23.38660156 10.0625 24.6875 C10.05798828 25.96173828 10.05347656 27.23597656 10.04882812 28.54882812 C10.03702873 31.69926564 10.02056597 34.84960949 10 38 C10.78761719 38.29648438 11.57523438 38.59296875 12.38671875 38.8984375 C14.93829662 39.9739905 16.21558732 40.93383794 18 43 C17.67 43.66 17.34 44.32 17 45 C15.35 44.01 13.7 43.02 12 42 C12 42.99 12 43.98 12 45 C13.32 45.33 14.64 45.66 16 46 C15.67 46.99 15.34 47.98 15 49 C14.34 49 13.68 49 13 49 C13 48.01 13 47.02 13 46 C12.278125 45.773125 11.55625 45.54625 10.8125 45.3125 C7.46790687 43.75168987 5.48396041 41.6968713 3 39 C3.33 38.34 3.66 37.68 4 37 C5.98 37.99 7.96 38.98 10 40 C9.34 39.01 8.68 38.02 8 37 C6.94067753 30.91224807 6.84754924 24.91727041 6.875 18.75 C6.87113281 17.86570312 6.86726563 16.98140625 6.86328125 16.0703125 C6.86457031 15.21695313 6.86585937 14.36359375 6.8671875 13.484375 C6.86831543 12.71834961 6.86944336 11.95232422 6.87060547 11.16308594 C7.00041515 8.99306 7.40359596 7.08593348 8 5 C5.08235 3.0549 3.37462715 2.54723683 0 2 C0 1.34 0 0.68 0 0 Z " fill="#B49463" transform="translate(14,35)"/>
<path d="M0 0 C1.30517578 -0.01224609 2.61035156 -0.02449219 3.95507812 -0.03710938 C5.19837891 -0.03904297 6.44167969 -0.04097656 7.72265625 -0.04296875 C9.43787476 -0.04913208 9.43787476 -0.04913208 11.18774414 -0.05541992 C13.9375 0.1875 13.9375 0.1875 15.9375 2.1875 C5.58047197 3.21222362 -4.66578698 3.2925173 -15.0625 3.1875 C-16.293894 6.88168201 -15.70682764 9.3931261 -15.0625 13.1875 C-14.815 12.07375 -14.5675 10.96 -14.3125 9.8125 C-13.0625 6.1875 -13.0625 6.1875 -11.24829102 4.97753906 C-8.96121179 4.15089008 -7.26318183 3.92953081 -4.83984375 3.921875 C-4.05416016 3.91929688 -3.26847656 3.91671875 -2.45898438 3.9140625 C-1.24178711 3.92566406 -1.24178711 3.92566406 0 3.9375 C0.81533203 3.92976563 1.63066406 3.92203125 2.47070312 3.9140625 C3.25509766 3.91664062 4.03949219 3.91921875 4.84765625 3.921875 C5.56058838 3.92413086 6.27352051 3.92638672 7.00805664 3.92871094 C8.9375 4.1875 8.9375 4.1875 11.9375 6.1875 C12.23046875 8.7890625 12.23046875 8.7890625 12.125 11.8125 C12.09792969 12.81539062 12.07085937 13.81828125 12.04296875 14.8515625 C12.00816406 15.62242188 11.97335938 16.39328125 11.9375 17.1875 C11.6075 17.1875 11.2775 17.1875 10.9375 17.1875 C10.6075 13.5575 10.2775 9.9275 9.9375 6.1875 C-0.4575 6.6825 -0.4575 6.6825 -11.0625 7.1875 C-12.21640773 16.56413987 -12.21640773 16.56413987 -8.65625 19.6953125 C-7.6353125 20.22898437 -6.614375 20.76265625 -5.5625 21.3125 C-4.5415625 21.87195313 -3.520625 22.43140625 -2.46875 23.0078125 C-1.27765625 23.59175781 -1.27765625 23.59175781 -0.0625 24.1875 C-0.3925 25.1775 -0.7225 26.1675 -1.0625 27.1875 C-2.0525 27.5175 -3.0425 27.8475 -4.0625 28.1875 C-3.7325 28.8475 -3.4025 29.5075 -3.0625 30.1875 C-8.7382923 28.02334898 -13.96513205 25.80457087 -18.0625 21.1875 C-19.9479981 14.42327557 -19.94576242 7.65561868 -17.0625 1.1875 C-11.61014246 -0.62995251 -5.70485314 0.00282558 0 0 Z " fill="#B59C72" transform="translate(48.0625,47.8125)"/>
<path d="M0 0 C17.50442478 9.17502458 17.50442478 9.17502458 20.6875 15.1875 C21.11849824 20.44567857 20.43813241 25.74241107 20 31 C9.11 31 -1.78 31 -13 31 C-13.33 29.35 -13.66 27.7 -14 26 C-13.34 26.99 -12.68 27.98 -12 29 C-11.67 28.34 -11.34 27.68 -11 27 C-2.42 27 6.16 27 15 27 C16.91714782 17.99193079 16.91714782 17.99193079 14.625 14.75 C13.04445033 13.69630022 11.45974853 12.6487376 9.8671875 11.61328125 C9.08601563 11.10152344 8.30484375 10.58976562 7.5 10.0625 C6.71753906 9.55589844 5.93507813 9.04929687 5.12890625 8.52734375 C2.56022783 6.68449373 0.76706027 4.61217604 -1 2 C-0.67 1.34 -0.34 0.68 0 0 Z " fill="#C1A776" transform="translate(45,87)"/>
<path d="M0 0 C-0.31831787 0.86854614 -0.31831787 0.86854614 -0.64306641 1.75463867 C-3.32752151 9.72858689 -3.41259524 17.17135059 -3.3515625 25.51757812 C-3.46948054 33.30508171 -3.46948054 33.30508171 -6.33203125 37.0546875 C-7.21246094 37.69664063 -8.09289062 38.33859375 -9 39 C-9.89138672 39.78310547 -9.89138672 39.78310547 -10.80078125 40.58203125 C-12.20052083 41.72135417 -13.60026042 42.86067708 -15 44 C-13.35 45.98 -11.7 47.96 -10 50 C-12.31 49.34 -14.62 48.68 -17 48 C-17.82041075 45.70284991 -18.1049494 44.37315341 -17.4375 42 C-15.44476953 39.22750544 -12.84888075 37.83990215 -10 36 C-7.91476066 32.872141 -7.73978445 32.04206266 -7.65625 28.46484375 C-7.61177734 27.12583008 -7.61177734 27.12583008 -7.56640625 25.75976562 C-7.53353516 24.36274414 -7.53353516 24.36274414 -7.5 22.9375 C-7.32565075 15.74302935 -6.63474527 9.01894991 -5 2 C-5.99 3.98 -6.98 5.96 -8 8 C-8.33 8 -8.66 8 -9 8 C-9.125 2.25 -9.125 2.25 -8 0 C-4.71585695 -0.95067299 -3.30306592 -1.10102197 0 0 Z " fill="#BAA272" transform="translate(83,38)"/>
<path d="M0 0 C3.63 0 7.26 0 11 0 C11 0.33 11 0.66 11 1 C6.545 1.495 6.545 1.495 2 2 C1.97311662 5.29172069 1.9532179 8.58322354 1.9375 11.875 C1.92912109 12.81214844 1.92074219 13.74929687 1.91210938 14.71484375 C1.90888672 15.61074219 1.90566406 16.50664063 1.90234375 17.4296875 C1.89710693 18.25710449 1.89187012 19.08452148 1.88647461 19.93701172 C1.86647862 22.06411757 1.86647862 22.06411757 3 24 C2.34 24.66 1.68 25.32 1 26 C0.34 24.35 -0.32 22.7 -1 21 C-1.66 21 -2.32 21 -3 21 C-3.33 22.65 -3.66 24.3 -4 26 C-10.28571429 28.42857143 -10.28571429 28.42857143 -14 27 C-9.5 23 -9.5 23 -5 23 C-5.33 22.01 -5.66 21.02 -6 20 C-6.0806622 18.51876453 -6.10761193 17.03417796 -6.09765625 15.55078125 C-6.09443359 14.70322266 -6.09121094 13.85566406 -6.08789062 12.98242188 C-6.07951172 12.10134766 -6.07113281 11.22027344 -6.0625 10.3125 C-6.05798828 9.41982422 -6.05347656 8.52714844 -6.04882812 7.60742188 C-6.03704983 5.40488013 -6.02060164 3.20247401 -6 1 C-5.67 1 -5.34 1 -5 1 C-4.67 3.97 -4.34 6.94 -4 10 C-3.01 9.34 -2.02 8.68 -1 8 C-0.83333333 5 -0.83333333 5 -1 2 C-0.67 1.34 -0.34 0.68 0 0 Z " fill="#C6AA6C" transform="translate(20,101)"/>
<path d="M0 0 C4.95 0 9.9 0 15 0 C15.33 0.66 15.66 1.32 16 2 C11.05 2 6.1 2 1 2 C1.33 2.99 1.66 3.98 2 5 C2.08315752 7.06498892 2.10735878 9.1325789 2.09765625 11.19921875 C2.09443359 12.40771484 2.09121094 13.61621094 2.08789062 14.86132812 C2.07951172 16.12396484 2.07113281 17.38660156 2.0625 18.6875 C2.05798828 19.96173828 2.05347656 21.23597656 2.04882812 22.54882812 C2.03702873 25.69926564 2.02056597 28.84960949 2 32 C2.78761719 32.29648438 3.57523438 32.59296875 4.38671875 32.8984375 C6.93829662 33.9739905 8.21558732 34.93383794 10 37 C9.67 37.66 9.34 38.32 9 39 C7.35 38.01 5.7 37.02 4 36 C4 36.99 4 37.98 4 39 C5.32 39.33 6.64 39.66 8 40 C7.67 40.99 7.34 41.98 7 43 C6.34 43 5.68 43 5 43 C5 42.01 5 41.02 5 40 C4.278125 39.773125 3.55625 39.54625 2.8125 39.3125 C-0.53209313 37.75168987 -2.51603959 35.6968713 -5 33 C-4.67 32.34 -4.34 31.68 -4 31 C-2.02 31.99 -0.04 32.98 2 34 C1.34 33.01 0.68 32.02 0 31 C-1.0639755 24.89224194 -1.15239931 18.87517786 -1.125 12.6875 C-1.13080078 11.34848633 -1.13080078 11.34848633 -1.13671875 9.98242188 C-1.13542969 9.12583984 -1.13414063 8.26925781 -1.1328125 7.38671875 C-1.13112061 6.22982544 -1.13112061 6.22982544 -1.12939453 5.04956055 C-1 3 -1 3 0 0 Z " fill="#A78A61" transform="translate(22,41)"/>
<path d="M0 0 C1.34362885 0.00031689 2.68728332 0.01162897 4.03076172 0.03173828 C4.73820526 0.03456818 5.4456488 0.03739807 6.17453003 0.04031372 C8.43667432 0.05151941 10.69842437 0.07662399 12.96044922 0.10205078 C14.49299559 0.11208011 16.02554816 0.12120604 17.55810547 0.12939453 C21.31737223 0.15145992 25.07634386 0.18599183 28.83544922 0.22705078 C29.71865911 4.68633429 29.89720373 7.10354176 27.83544922 11.22705078 C27.17544922 10.89705078 26.51544922 10.56705078 25.83544922 10.22705078 C25.50544922 11.87705078 25.17544922 13.52705078 24.83544922 15.22705078 C24.50544922 15.22705078 24.17544922 15.22705078 23.83544922 15.22705078 C23.78646484 14.44458984 23.73748047 13.66212891 23.68701172 12.85595703 C23.61224609 11.84404297 23.53748047 10.83212891 23.46044922 9.78955078 C23.39083984 8.78021484 23.32123047 7.77087891 23.24951172 6.73095703 C23.11287109 5.90466797 22.97623047 5.07837891 22.83544922 4.22705078 C19.45992242 2.53928738 15.66921211 3.04245279 11.96044922 3.03955078 C11.14447266 3.02730469 10.32849609 3.01505859 9.48779297 3.00244141 C8.69759766 3.00050781 7.90740234 2.99857422 7.09326172 2.99658203 C6.01262451 2.9904187 6.01262451 2.9904187 4.91015625 2.98413086 C2.49205688 3.26725734 0.89472805 3.94035617 -1.16455078 5.22705078 C-1.86087293 7.18070523 -1.86087293 7.18070523 -1.91455078 9.35205078 C-1.99705078 10.63080078 -2.07955078 11.90955078 -2.16455078 13.22705078 C-4.2875602 9.68870174 -4.86145674 6.31882033 -5.16455078 2.22705078 C-3.16455078 0.22705078 -3.16455078 0.22705078 0 0 Z " fill="#C4AA77" transform="translate(36.16455078125,49.77294921875)"/>
<path d="M0 0 C1.26319205 2.5263841 0.82268731 3.25257422 0.1015625 5.93359375 C-1.17929378 11.30565567 -1.44114225 16.55825867 -1.625 22.0625 C-1.68300781 23.50399414 -1.68300781 23.50399414 -1.7421875 24.97460938 C-1.83538626 27.31622814 -1.92119185 29.65786037 -2 32 C-2.99 32.495 -2.99 32.495 -4 33 C-4.495 31.515 -4.495 31.515 -5 30 C-5.99 30.33 -6.98 30.66 -8 31 C-7.67 29.35 -7.34 27.7 -7 26 C-6.01 25.67 -5.02 25.34 -4 25 C-5.22106092 23.54706863 -5.22106092 23.54706863 -8.875 23.9375 C-10.25004315 23.95525886 -11.62505294 23.97592505 -13 24 C-13.99 24 -14.98 24 -16 24 C-16 22.68 -16 21.36 -16 20 C-15.34 20 -14.68 20 -14 20 C-13.34 19.01 -12.68 18.02 -12 17 C-12 18.98 -12 20.96 -12 23 C-10.02 23 -8.04 23 -6 23 C-6 18.71 -6 14.42 -6 10 C-5.34 10 -4.68 10 -4 10 C-3.67 7.69 -3.34 5.38 -3 3 C-2.34 3 -1.68 3 -1 3 C-0.67 2.01 -0.34 1.02 0 0 Z " fill="#BC9D5C" transform="translate(78,39)"/>
<path d="M0 0 C0.99 0.33 1.98 0.66 3 1 C3 9.25 3 17.5 3 26 C3.66 26 4.32 26 5 26 C5 26.66 5 27.32 5 28 C5.928125 27.690625 5.928125 27.690625 6.875 27.375 C7.57625 27.25125 8.2775 27.1275 9 27 C9.66 27.66 10.32 28.32 11 29 C10.34 29.66 9.68 30.32 9 31 C8.53603307 33.89223503 8.53603307 33.89223503 8.375 37.125 C8.30023438 38.22070312 8.22546875 39.31640625 8.1484375 40.4453125 C8.09945313 41.28835937 8.05046875 42.13140625 8 43 C5.57395248 40.57395248 5.24156481 38.85807224 4.375 35.5625 C4.11460938 34.59441406 3.85421875 33.62632813 3.5859375 32.62890625 C3 30 3 30 3 27 C2.01 26.67 1.02 26.34 0 26 C0 17.42 0 8.84 0 0 Z " fill="#BBA26F" transform="translate(9,9)"/>
<path d="M0 0 C3.3125 0.0625 3.3125 0.0625 7 1 C8.6875 4.4375 8.6875 4.4375 10 8 C11.90168356 9.45219377 11.90168356 9.45219377 14 10 C17 11 17 11 18.1796875 13.10546875 C19.17514987 16.61802881 19.19315558 19.66617661 19.125 23.3125 C19.10695313 24.56675781 19.08890625 25.82101563 19.0703125 27.11328125 C19.04710938 28.06589844 19.02390625 29.01851562 19 30 C18.67 30 18.34 30 18 30 C17.98582031 29.10796875 17.97164062 28.2159375 17.95703125 27.296875 C17.90933594 26.12640625 17.86164063 24.9559375 17.8125 23.75 C17.76029297 22.00976562 17.76029297 22.00976562 17.70703125 20.234375 C16.7958252 16.06598489 15.52958148 15.30190097 12 13 C10.88757558 12.21601518 9.77697612 11.42943609 8.66796875 10.640625 C7.50911032 9.84186382 6.34893653 9.04500784 5.1875 8.25 C4.2912793 7.63318359 4.2912793 7.63318359 3.37695312 7.00390625 C1.91912546 6.00092082 0.45972526 5.0002217 -1 4 C-0.67 2.68 -0.34 1.36 0 0 Z " fill="#C4AB62" transform="translate(54,80)"/>
<path d="M0 0 C6.5146789 3.86055046 6.5146789 3.86055046 8.4375 8.375 C10.14607854 18.39866079 9.74590019 28.5237644 6 38 C5.67 38 5.34 38 5 38 C5.01571045 37.24904053 5.0314209 36.49808105 5.04760742 35.72436523 C5.11027758 32.29548789 5.14909261 28.86673145 5.1875 25.4375 C5.21263672 24.25607422 5.23777344 23.07464844 5.26367188 21.85742188 C5.31789361 15.40503586 5.12422404 10.68608776 2 5 C1.32723284 3.3357865 0.65793165 1.67013418 0 0 Z " fill="#BDA57C" transform="translate(74,88)"/>
<path d="M0 0 C8.12229102 2.24767802 8.12229102 2.24767802 11.1875 4.875 C12 7 12 7 10 12 C-3.86 11.67 -17.72 11.34 -32 11 C-32 10.67 -32 10.34 -32 10 C-18.8 9.67 -5.6 9.34 8 9 C5.2981424 5.8509288 5.2981424 5.8509288 2 5 C0.8125 2.4375 0.8125 2.4375 0 0 Z " fill="#C1A26B" transform="translate(82,126)"/>
<path d="M0 0 C0.66 1.32 1.32 2.64 2 4 C1.01 4.495 1.01 4.495 0 5 C-0.33 5.99 -0.66 6.98 -1 8 C-4.0625 9.1875 -4.0625 9.1875 -7 10 C-7.33 12.31 -7.66 14.62 -8 17 C-8.66 17 -9.32 17 -10 17 C-9.67 24.26 -9.34 31.52 -9 39 C-9.66 39 -10.32 39 -11 39 C-11.08719631 34.43762069 -11.14045922 29.87545614 -11.1875 25.3125 C-11.21263672 24.01892578 -11.23777344 22.72535156 -11.26367188 21.39257812 C-11.27333984 20.14541016 -11.28300781 18.89824219 -11.29296875 17.61328125 C-11.3086792 16.46641846 -11.32438965 15.31955566 -11.34057617 14.13793945 C-10.86101905 9.71948233 -9.26155997 7.11200602 -5.95703125 4.19921875 C-5.24933594 3.70035156 -4.54164062 3.20148438 -3.8125 2.6875 C-3.09707031 2.17574219 -2.38164062 1.66398437 -1.64453125 1.13671875 C-1.10183594 0.76160156 -0.55914062 0.38648437 0 0 Z " fill="#B59F73" transform="translate(24,85)"/>
<path d="M0 0 C0.99 1.485 0.99 1.485 2 3 C2.33 2.34 2.66 1.68 3 1 C11.91 1 20.82 1 30 1 C30 2.32 30 3.64 30 5 C20.43 5 10.86 5 1 5 C0.67 3.35 0.34 1.7 0 0 Z " fill="#C4A872" transform="translate(31,113)"/>
<path d="M0 0 C2.73828125 1.48828125 2.73828125 1.48828125 5.3125 3.3125 C6.17488281 3.90675781 7.03726563 4.50101562 7.92578125 5.11328125 C10.18849154 7.17145276 10.72922122 8.00414962 11 11 C10.70212766 18.29787234 10.70212766 18.29787234 9 20 C7.21928754 20.08726223 5.4351686 20.10699041 3.65234375 20.09765625 C2.57275391 20.09443359 1.49316406 20.09121094 0.38085938 20.08789062 C-0.75544922 20.07951172 -1.89175781 20.07113281 -3.0625 20.0625 C-4.20267578 20.05798828 -5.34285156 20.05347656 -6.51757812 20.04882812 C-9.34510351 20.03699747 -12.1725264 20.0205141 -15 20 C-15.33 18.68 -15.66 17.36 -16 16 C-15.34 16.66 -14.68 17.32 -14 18 C-11.67182795 18.27765416 -11.67182795 18.27765416 -8.9921875 18.1953125 C-8.00605469 18.18886719 -7.01992188 18.18242188 -6.00390625 18.17578125 C-4.97136719 18.15902344 -3.93882813 18.14226562 -2.875 18.125 C-1.83472656 18.11597656 -0.79445313 18.10695313 0.27734375 18.09765625 C2.85179092 18.07403747 5.42578212 18.04110149 8 18 C7.96098723 11.22402704 7.96098723 11.22402704 4.890625 5.45703125 C4.01921875 4.91433594 3.1478125 4.37164062 2.25 3.8125 C1.38890625 3.24144531 0.5278125 2.67039062 -0.359375 2.08203125 C-3.41841593 0.8285485 -4.88971758 1.03223227 -8 2 C-8 1.34 -8 0.68 -8 0 C-5.04313875 -1.47843062 -3.17394593 -0.76159238 0 0 Z " fill="#9E8A64" transform="translate(51,95)"/>
<path d="M0 0 C1.1446875 -0.02578125 2.289375 -0.0515625 3.46875 -0.078125 C6.5 0.25 6.5 0.25 8.40625 1.765625 C8.7671875 2.25546875 9.128125 2.7453125 9.5 3.25 C8.84 3.91 8.18 4.57 7.5 5.25 C7.17 4.92 6.84 4.59 6.5 4.25 C1.39699906 3.99052538 -2.79154122 4.00787677 -7.5 6.25 C-8.92055068 8.25136244 -8.92055068 8.25136244 -9.5 10.25 C-9.5 8.93 -9.5 7.61 -9.5 6.25 C-10.16 5.92 -10.82 5.59 -11.5 5.25 C-10.6875 3.3125 -10.6875 3.3125 -9.5 1.25 C-6.16334135 0.13778045 -3.51220338 0.04746221 0 0 Z " fill="#B8A37A" transform="translate(47.5,5.75)"/>
<path d="M0 0 C0.3125 3.6875 0.3125 3.6875 0 7 C-0.66 7 -1.32 7 -2 7 C-2 4.69 -2 2.38 -2 0 C-11.24 0 -20.48 0 -30 0 C-25.59038278 -2.93974482 -21.3239129 -2.58166024 -16.125 -2.8125 C-14.63419922 -2.90821289 -14.63419922 -2.90821289 -13.11328125 -3.00585938 C-3.61979688 -3.45702229 -3.61979688 -3.45702229 0 0 Z " fill="#A28B68" transform="translate(74,42)"/>
<path d="M0 0 C1.30517578 -0.01224609 2.61035156 -0.02449219 3.95507812 -0.03710938 C5.19837891 -0.03904297 6.44167969 -0.04097656 7.72265625 -0.04296875 C9.43787476 -0.04913208 9.43787476 -0.04913208 11.18774414 -0.05541992 C13.9375 0.1875 13.9375 0.1875 15.9375 2.1875 C7.51325511 3.02099419 -0.77304531 3.28013341 -9.23193359 3.15039062 C-11.17537162 3.12848324 -13.11923493 3.15355651 -15.0625 3.1875 C-17.03072886 5.15572886 -16.72498381 8.53558709 -17.0625 11.1875 C-17.7225 11.1875 -18.3825 11.1875 -19.0625 11.1875 C-18.1875 3.4375 -18.1875 3.4375 -17.0625 1.1875 C-11.61014246 -0.62995251 -5.70485314 0.00282558 0 0 Z " fill="#A37F58" transform="translate(48.0625,47.8125)"/>
<path d="M0 0 C0.99 0.33 1.98 0.66 3 1 C3 9.25 3 17.5 3 26 C2.01 26 1.02 26 0 26 C0 17.42 0 8.84 0 0 Z " fill="#C1AD86" transform="translate(9,9)"/>
<path d="M0 0 C2 2 2 2 2.125 4.625 C2.08375 5.40875 2.0425 6.1925 2 7 C2.66 4.69 3.32 2.38 4 0 C4.33 0 4.66 0 5 0 C5 3.63 5 7.26 5 11 C4.01 11.33 3.02 11.66 2 12 C1.34 11.67 0.68 11.34 0 11 C-0.33 11.99 -0.66 12.98 -1 14 C-1.33 11.03 -1.66 8.06 -2 5 C-1.34 5 -0.68 5 0 5 C0 3.35 0 1.7 0 0 Z " fill="#B89A64" transform="translate(31,54)"/>
<path d="M0 0 C0.66 0 1.32 0 2 0 C2.9821994 3.27626375 3.11580914 6.22788119 3.09765625 9.640625 C3.09443359 10.71054688 3.09121094 11.78046875 3.08789062 12.8828125 C3.07951172 13.99398437 3.07113281 15.10515625 3.0625 16.25 C3.05798828 17.37664062 3.05347656 18.50328125 3.04882812 19.6640625 C3.03705397 22.44276217 3.0206084 25.22135409 3 28 C2.34 28.33 1.68 28.66 1 29 C0.16220564 19.29056184 -0.12276617 9.73944972 0 0 Z " fill="#C9A671" transform="translate(72,95)"/>
<path d="M0 0 C3.59391114 1.33488128 6.75490696 2.96022723 10 5 C9.67 5.99 9.34 6.98 9 8 C8.01 8.33 7.02 8.66 6 9 C6.33 9.66 6.66 10.32 7 11 C3.37723685 9.6744419 0.36494652 8.05653045 -2.8125 5.875 C-3.60269531 5.33617188 -4.39289062 4.79734375 -5.20703125 4.2421875 C-5.79871094 3.83226563 -6.39039062 3.42234375 -7 3 C-4 2 -4 2 -2.17578125 2.77734375 C-0.45052083 3.8515625 1.27473958 4.92578125 3 6 C3.33218192 2.99740483 3.33218192 2.99740483 1.5 1.3125 C1.005 0.879375 0.51 0.44625 0 0 Z " fill="#AA946E" transform="translate(38,67)"/>
<path d="M0 0 C1.32 0 2.64 0 4 0 C4 0.66 4 1.32 4 2 C3.01 2 2.02 2 1 2 C1 8.27 1 14.54 1 21 C0.34 21.33 -0.32 21.66 -1 22 C-1.02887814 18.52085059 -1.04675687 15.04173169 -1.0625 11.5625 C-1.07087891 10.56927734 -1.07925781 9.57605469 -1.08789062 8.55273438 C-1.09111328 7.60849609 -1.09433594 6.66425781 -1.09765625 5.69140625 C-1.10289307 4.81685791 -1.10812988 3.94230957 -1.11352539 3.04125977 C-1 1 -1 1 0 0 Z " fill="#A79369" transform="translate(22,102)"/>
<path d="M0 0 C9.35483871 -0.32258065 9.35483871 -0.32258065 14 2 C15.375 4.625 15.375 4.625 16 7 C15.34 7 14.68 7 14 7 C14 6.34 14 5.68 14 5 C13.34 5 12.68 5 12 5 C12 4.34 12 3.68 12 3 C6.06 3.495 6.06 3.495 0 4 C0 2.68 0 1.36 0 0 Z " fill="#B6A47B" transform="translate(14,6)"/>
<path d="M0 0 C17.32535485 9.08116425 17.32535485 9.08116425 20.109375 13.93359375 C20.94844376 16.66056721 21.29840017 18.40319966 20 21 C19.85820313 19.97519531 19.71640625 18.95039062 19.5703125 17.89453125 C18.02533805 12.48439584 13.45263033 10.43197515 8.875 7.6875 C7.20210802 6.65558711 5.53262291 5.61812329 3.8671875 4.57421875 C3.12581543 4.12651123 2.38444336 3.67880371 1.62060547 3.2175293 C1.08580566 2.81574463 0.55100586 2.41395996 0 2 C0 1.34 0 0.68 0 0 Z " fill="#A69573" transform="translate(45,87)"/>
<path d="M0 0 C0 0.66 0 1.32 0 2 C-0.66 2 -1.32 2 -2 2 C-2.66 3.32 -3.32 4.64 -4 6 C-4.33 6 -4.66 6 -5 6 C-5.33 7.65 -5.66 9.3 -6 11 C-6.99 10.67 -7.98 10.34 -9 10 C-9.25 4.375 -9.25 4.375 -7 1 C-4.50335747 0.11409459 -2.67884659 0 0 0 Z " fill="#BAA372" transform="translate(73,6)"/>
<path d="M0 0 C0.66 0 1.32 0 2 0 C2 0.66 2 1.32 2 2 C7.61 2 13.22 2 19 2 C19 2.33 19 2.66 19 3 C6.46 3 -6.08 3 -19 3 C-19 2.67 -19 2.34 -19 2 C-17.71222656 1.93941406 -16.42445312 1.87882812 -15.09765625 1.81640625 C-13.41925841 1.73201753 -11.74087364 1.6473687 -10.0625 1.5625 C-8.78729492 1.50352539 -8.78729492 1.50352539 -7.48632812 1.44335938 C-6.67744141 1.40146484 -5.86855469 1.35957031 -5.03515625 1.31640625 C-3.91185913 1.26141968 -3.91185913 1.26141968 -2.76586914 1.20532227 C-0.97538674 1.18228937 -0.97538674 1.18228937 0 0 Z " fill="#C8B072" transform="translate(52,126)"/>
<path d="M0 0 C3.6880524 1.75182489 5.4837092 3.20927301 7 7 C7.33 7.33 7.66 7.66 8 8 C8.07271741 10.35313555 8.08370868 12.70833668 8.0625 15.0625 C8.05347656 16.35285156 8.04445313 17.64320312 8.03515625 18.97265625 C8.02355469 19.97167969 8.01195313 20.97070312 8 22 C7.67 22 7.34 22 7 22 C6.98582031 21.10796875 6.97164062 20.2159375 6.95703125 19.296875 C6.90933594 18.12640625 6.86164063 16.9559375 6.8125 15.75 C6.77769531 14.58984375 6.74289063 13.4296875 6.70703125 12.234375 C5.81497794 8.15360072 4.44528693 7.22540015 1 5 C0.01 4.34 -0.98 3.68 -2 3 C-2 2.34 -2 1.68 -2 1 C-1.34 0.67 -0.68 0.34 0 0 Z " fill="#B19A70" transform="translate(65,88)"/>
<path d="M0 0 C0.33 0.99 0.66 1.98 1 3 C-0.32 4.32 -1.64 5.64 -3 7 C-1.35 8.65 0.3 10.3 2 12 C-0.31 11.34 -2.62 10.68 -5 10 C-5.86325845 7.58287634 -6.1132654 6.35009306 -5.3125 3.875 C-3.7809268 1.68703828 -2.45234885 0.98093954 0 0 Z " fill="#B7A279" transform="translate(71,76)"/>
<path d="M0 0 C1.65 0 3.3 0 5 0 C5 2.97 5 5.94 5 9 C3.68 9 2.36 9 1 9 C0.67 6.03 0.34 3.06 0 0 Z " fill="#AD9261" transform="translate(28,103)"/>
<path d="M0 0 C0.66 0 1.32 0 2 0 C2 0.66 2 1.32 2 2 C2.66 2.33 3.32 2.66 4 3 C3.67 3.99 3.34 4.98 3 6 C3.99 6.33 4.98 6.66 6 7 C3.125 7.625 3.125 7.625 0 8 C-0.66 7.34 -1.32 6.68 -2 6 C-1.44444444 1.44444444 -1.44444444 1.44444444 0 0 Z " fill="#C0A578" transform="translate(4,130)"/>
<path d="M0 0 C3.96 0 7.92 0 12 0 C11.67 0.66 11.34 1.32 11 2 C10.67 2 10.34 2 10 2 C10 3.65 10 5.3 10 7 C9.01 7.495 9.01 7.495 8 8 C6.5393715 5.35261084 6 4.10551666 6 1 C4.02 1 2.04 1 0 1 C0 0.67 0 0.34 0 0 Z " fill="#BDA26D" transform="translate(53,50)"/>
<path d="M0 0 C8.35010941 2.3107221 8.35010941 2.3107221 11.0625 5.1875 C11.371875 5.785625 11.68125 6.38375 12 7 C11.34 8.32 10.68 9.64 10 11 C9.67 9.35 9.34 7.7 9 6 C8.34 6 7.68 6 7 6 C6.67 5.34 6.34 4.68 6 4 C4.02477154 2.95191959 2.02518491 1.9479589 0 1 C0 0.67 0 0.34 0 0 Z " fill="#BEA886" transform="translate(82,126)"/>
<path d="M0 0 C0.66 0.66 1.32 1.32 2 2 C1.01 2.33 0.02 2.66 -1 3 C-1.103125 3.639375 -1.20625 4.27875 -1.3125 4.9375 C-1.539375 5.618125 -1.76625 6.29875 -2 7 C-5.0625 8.25 -5.0625 8.25 -8 9 C-7.67 7.68 -7.34 6.36 -7 5 C-6.360625 4.896875 -5.72125 4.79375 -5.0625 4.6875 C-4.381875 4.460625 -3.70125 4.23375 -3 4 C-2.67 3.01 -2.34 2.02 -2 1 C-1.34 0.67 -0.68 0.34 0 0 Z " fill="#BFA876" transform="translate(44,92)"/>
<path d="M0 0 C0.53625 0.2475 1.0725 0.495 1.625 0.75 C0.635 1.08 -0.355 1.41 -1.375 1.75 C-1.375 2.41 -1.375 3.07 -1.375 3.75 C-3.75 5.4375 -3.75 5.4375 -6.375 6.75 C-7.035 6.42 -7.695 6.09 -8.375 5.75 C-8.375 5.09 -8.375 4.43 -8.375 3.75 C-3.23290173 -0.34030544 -3.23290173 -0.34030544 0 0 Z " fill="#C2AC7C" transform="translate(57.375,67.25)"/>
<path d="M0 0 C4.29 0 8.58 0 13 0 C12.01 0.495 12.01 0.495 11 1 C11 1.66 11 2.32 11 3 C7.37 2.34 3.74 1.68 0 1 C0 0.67 0 0.34 0 0 Z " fill="#B58E54" transform="translate(33,40)"/>
<path d="M0 0 C2.97 0.495 2.97 0.495 6 1 C6.33 2.32 6.66 3.64 7 5 C5.02 5.33 3.04 5.66 1 6 C0.67 4.02 0.34 2.04 0 0 Z " fill="#C7AB6F" transform="translate(68,86)"/>
<path d="M0 0 C0.66 0.66 1.32 1.32 2 2 C1.7578125 4.8203125 1.7578125 4.8203125 1.125 8.125 C0.92132812 9.22070312 0.71765625 10.31640625 0.5078125 11.4453125 C0.34023438 12.28835937 0.17265625 13.13140625 0 14 C-0.33 14 -0.66 14 -1 14 C-1.33 11.03 -1.66 8.06 -2 5 C-1.34 5 -0.68 5 0 5 C0 3.35 0 1.7 0 0 Z " fill="#B38C5A" transform="translate(31,54)"/>
<path d="M0 0 C3.59391114 1.33488128 6.75490696 2.96022723 10 5 C9.67 5.99 9.34 6.98 9 8 C8.34 8 7.68 8 7 8 C7 7.01 7 6.02 7 5 C6.21625 4.731875 5.4325 4.46375 4.625 4.1875 C2 3 2 3 0 0 Z " fill="#917856" transform="translate(20,76)"/>
<path d="M0 0 C6.75 1.75 6.75 1.75 9 4 C9 4.66 9 5.32 9 6 C5.06326356 4.68775452 2.77280706 3.08089673 0 0 Z " fill="#AE9B6F" transform="translate(53,83)"/>
<path d="M0 0 C2.97 1.98 2.97 1.98 6 4 C5.67 4.99 5.34 5.98 5 7 C3.29115995 5.37660195 1.62553283 3.70680947 0 2 C0 1.34 0 0.68 0 0 Z " fill="#BBA57D" transform="translate(74,88)"/>
<path d="M0 0 C0.33 0 0.66 0 1 0 C1 3.96 1 7.92 1 12 C0.67 12 0.34 12 0 12 C0 8.04 0 4.08 0 0 Z " fill="#BCA779" transform="translate(93,66)"/>
<path d="" fill="#999999" transform="translate(0,0)"/>
</svg>
