<?xml version="1.0" encoding="UTF-8"?>
<svg version="1.1" xmlns="http://www.w3.org/2000/svg" width="500" height="500">
<path d="M0 0 C47.19 0 94.38 0 143 0 C140.8315421 11.92651845 140.8315421 11.92651845 138.390625 18.05078125 C135.24616323 26.72873292 135.46771229 35.06941633 135.75 44.1875 C136.35166697 72.03484581 136.35166697 72.03484581 132.8828125 77.078125 C131.97273437 77.79484375 131.06265625 78.5115625 130.125 79.25 C129.13886719 80.04664063 128.15273438 80.84328125 127.13671875 81.6640625 C126.10160156 82.43492187 125.06648437 83.20578125 124 84 C122.46279297 85.18722656 122.46279297 85.18722656 120.89453125 86.3984375 C113.45526316 92 113.45526316 92 111 92 C111.69670167 96.12602818 113.54355618 97.4838591 116.91479492 99.90795898 C117.5822876 100.37145752 118.24978027 100.83495605 118.9375 101.3125 C119.95324097 102.03771851 119.95324097 102.03771851 120.98950195 102.77758789 C125.60328576 106.06204132 130.25577309 109.29534936 134.94921875 112.46484375 C139.10180218 115.57334906 141.43493927 117.82985898 142.23828125 123.06640625 C143.30888501 130.83152244 143.26466266 138.60376805 143.20581055 146.42651367 C143.1875574 148.92962913 143.18530168 151.43237167 143.18554688 153.93554688 C143.16503556 163.00592146 142.88174142 171.96646279 142 181 C142.59240479 181.13124268 143.18480957 181.26248535 143.79516602 181.39770508 C147.11058834 182.30337963 149.96598087 184.00603975 152.9375 185.6875 C153.54529297 186.01427734 154.15308594 186.34105469 154.77929688 186.67773438 C159.73644543 189.47448593 163.40592304 192.81184609 166 198 C166.45070341 203.29576505 166.45070341 203.29576505 164.93275452 205.66759682 C162.0516103 207.65380132 159.20277657 207.41372195 155.82592773 207.38095093 C155.09044173 207.3856309 154.35495573 207.39031087 153.59718227 207.39513266 C151.12580418 207.40712544 148.65497623 207.39760901 146.18359375 207.38818359 C144.41463903 207.3922474 142.64568685 207.39758821 140.8767395 207.40411377 C136.06688872 207.41781589 131.2572305 207.4124768 126.44737625 207.40297651 C121.41990886 207.39539489 116.39245825 207.40242135 111.36499023 207.40713501 C102.92135652 207.41259694 94.47780146 207.40538949 86.03417969 207.39111328 C76.26444031 207.37478594 66.49488874 207.38007414 56.72515392 207.3965925 C48.3454817 207.41019492 39.9658661 207.41213312 31.58618641 207.40427649 C26.57767978 207.39959312 21.56926149 207.39899331 16.5607605 207.40888596 C11.85265156 207.41753527 7.14478537 207.41157108 2.43670273 207.39420319 C0.70607787 207.39022743 -1.02456733 207.39139092 -2.75518417 207.39799118 C-5.11237697 207.40615403 -7.46878532 207.39594966 -9.82592773 207.38095093 C-10.51551354 207.38764309 -11.20509935 207.39433526 -11.9155817 207.40123022 C-14.73184754 207.36632112 -16.57991251 207.29478357 -18.92103577 205.65197182 C-20.666022 202.98027243 -20.42810738 201.11906803 -20 198 C-16.07538725 190.46474352 -8.56167029 184.71508149 -1 181 C-0.01 181 0.98 181 2 181 C2 180.34 2 179.68 2 179 C2.66 179 3.32 179 4 179 C3.67386719 177.86949219 3.34773438 176.73898437 3.01171875 175.57421875 C1.51895297 168.83239835 1.73843 162.00212871 1.79418945 155.13647461 C1.81232265 152.83500891 1.81469925 150.53395134 1.81445312 148.23242188 C1.87425121 120.2360138 1.87425121 120.2360138 7.75390625 114.19921875 C8.64916016 113.45091797 8.64916016 113.45091797 9.5625 112.6875 C10.16191406 112.17574219 10.76132813 111.66398437 11.37890625 111.13671875 C13 110 13 110 15 110 C15 109.34 15 108.68 15 108 C17.19756551 106.29309526 19.39558115 104.69568564 21.6875 103.125 C22.94235425 102.25396832 24.19627643 101.38159217 25.44921875 100.5078125 C26.05169434 100.08790039 26.65416992 99.66798828 27.27490234 99.23535156 C29.58920164 97.57806959 31.80175181 95.80735511 34 94 C33.01 93.38125 32.02 92.7625 31 92.125 C29.515 91.073125 29.515 91.073125 28 90 C28 89.34 28 88.68 28 88 C27.27941406 87.74863281 26.55882812 87.49726563 25.81640625 87.23828125 C22.75897243 85.8940281 20.53148242 84.28433587 17.9375 82.1875 C16.68259766 81.18783203 16.68259766 81.18783203 15.40234375 80.16796875 C9.26908686 74.63307838 7.68843267 70.13634668 7 62 C6.95318437 57.04440962 7.09943706 52.10387233 7.24902344 47.15106201 C7.67088159 31.60923962 6.26336976 18.53780027 0.64257812 3.85888672 C0 2 0 2 0 0 Z M20 12 C19.55116774 14.56610276 19.55116774 14.56610276 19.62768555 17.49365234 C19.62145676 18.61847015 19.61522797 19.74328796 19.60881042 20.90219116 C19.61802017 22.11782745 19.62722992 23.33346375 19.63671875 24.5859375 C19.63622025 25.83500885 19.63572174 27.0840802 19.63520813 28.3710022 C19.63755099 31.01587592 19.64571754 33.65995225 19.66381836 36.3046875 C19.68645927 39.68630522 19.68705785 43.0674756 19.68030071 46.44914818 C19.67614409 49.68227801 19.68814405 52.91532928 19.69921875 56.1484375 C19.69830734 57.36002533 19.69739594 58.57161316 19.69645691 59.81991577 C19.70598892 60.9510379 19.71552094 62.08216003 19.7253418 63.24755859 C19.73225288 64.7362294 19.73225288 64.7362294 19.73930359 66.25497437 C20.29379504 72.09354049 22.67290643 75.17409675 27 79 C29.24603702 80.67234837 31.56821686 82.20278782 33.921875 83.71875 C35.26506047 84.59882631 36.60815733 85.47903787 37.95117188 86.359375 C38.96667114 87.02066406 38.96667114 87.02066406 40.00268555 87.6953125 C43.04261201 89.68105594 46.0598979 91.70024652 49.078125 93.71875 C50.25760689 94.50531327 51.43721433 95.29168831 52.61694336 96.07788086 C55.11788895 97.74516376 57.61867992 99.41267831 60.11938477 101.08032227 C66.01376374 105.01086448 71.9087365 108.94049052 77.80813599 112.86349487 C80.26736754 114.49892136 82.72604687 116.13517703 85.18469238 117.77148438 C86.33846037 118.53900243 87.49250589 119.30610349 88.64685059 120.07275391 C91.23718971 121.79317319 93.81829086 123.5215592 96.37670898 125.28930664 C98.8704491 127.01646258 98.8704491 127.01646258 101.28149414 128.00561523 C103.62456029 129.12325927 104.62768155 129.77272916 106 132 C106.79003648 136.96471952 106.79680701 141.77876467 106.63793945 146.79370117 C106.56239973 149.19068155 106.53549776 151.58438185 106.51757812 153.98242188 C106.49499362 155.50264844 106.46969762 157.02283768 106.44140625 158.54296875 C106.42976944 159.2606694 106.41813263 159.97837006 106.40614319 160.71781921 C106.23568152 165.76431848 106.23568152 165.76431848 104 168 C101.29856873 168.24723816 101.29856873 168.24723816 97.82202148 168.24291992 C96.52405136 168.24599655 95.22608124 168.24907318 93.88877869 168.25224304 C92.46621525 168.24534581 91.04365356 168.23807888 89.62109375 168.23046875 C88.16903219 168.22927707 86.71696986 168.22882376 85.26490784 168.2290802 C82.2209084 168.22751504 79.17702651 168.21922222 76.13305664 168.20581055 C72.22312224 168.18880552 68.31331693 168.18499661 64.40334988 168.18575573 C61.40516417 168.18548438 58.40700691 168.18000904 55.40883064 168.17275429 C53.96666746 168.16956318 52.52450104 168.16759919 51.08233452 168.16686058 C49.07107261 168.16470256 47.05982263 168.15517349 45.04858398 168.14526367 C43.90211899 168.14145187 42.75565399 168.13764008 41.57444763 168.13371277 C39 168 39 168 38 167 C37.87825371 165.04810172 37.8202717 163.09216117 37.7890625 161.13671875 C37.76070312 159.93982422 37.73234375 158.74292969 37.703125 157.50976562 C37.65128412 154.97345072 37.60694182 152.43697082 37.5703125 149.90039062 C37.539375 148.69962891 37.5084375 147.49886719 37.4765625 146.26171875 C37.45674316 145.15787842 37.43692383 144.05403809 37.41650391 142.91674805 C36.95593781 139.69143552 36.30775503 138.27385235 34 136 C30.87386429 135.43972166 30.87386429 135.43972166 27.4375 135.625 C26.28121094 135.63789063 25.12492187 135.65078125 23.93359375 135.6640625 C20.87964307 135.70564511 20.87964307 135.70564511 19 138 C18.69468098 140.04587675 18.69468098 140.04587675 18.74121094 142.41796875 C18.73490662 143.33231689 18.72860229 144.24666504 18.72210693 145.1887207 C18.7261554 146.17831787 18.73020386 147.16791504 18.734375 148.1875 C18.73246155 149.20094482 18.7305481 150.21438965 18.72857666 151.25854492 C18.72721409 153.40381112 18.73091553 155.54908553 18.73925781 157.69433594 C18.74995618 160.98651572 18.73936481 164.27814978 18.7265625 167.5703125 C18.72788408 169.65104288 18.73044645 171.73177291 18.734375 173.8125 C18.73032654 174.80209717 18.72627808 175.79169434 18.72210693 176.8112793 C18.72841125 177.72562744 18.73471558 178.63997559 18.74121094 179.58203125 C18.74280212 180.38874268 18.74439331 181.1954541 18.74603271 182.02661133 C18.8256875 184.23306436 18.8256875 184.23306436 21 186 C22.89903569 186.30554621 22.89903569 186.30554621 25.09936523 186.26069641 C26.38651932 186.27132362 26.38651932 186.27132362 27.69967651 186.28216553 C28.6431192 186.27968811 29.58656189 186.27721069 30.55859375 186.2746582 C31.55053741 186.27976913 32.54248108 186.28488007 33.56448364 186.29014587 C36.85554983 186.30408851 40.14640773 186.30308174 43.4375 186.30078125 C45.7167163 186.30466531 47.99593186 186.30899937 50.27514648 186.31376648 C55.05682724 186.32123854 59.83843417 186.32093005 64.62011719 186.31567383 C70.76083376 186.30987475 76.90124915 186.32681621 83.04191589 186.3500185 C87.74981465 186.36471823 92.45764022 186.36563274 97.16555786 186.36250877 C99.43027341 186.36302378 101.69499287 186.36829483 103.95968628 186.37832069 C107.1204614 186.3905964 110.28064134 186.38394706 113.44140625 186.37231445 C114.38484894 186.37995819 115.32829163 186.38760193 116.30032349 186.39547729 C117.15842621 186.38846298 118.01652893 186.38144867 118.90063477 186.3742218 C119.64837662 186.37438954 120.39611847 186.37455729 121.16651917 186.37473011 C123.41574489 186.13918347 123.41574489 186.13918347 125 183 C125.30390528 180.46909131 125.30390528 180.46909131 125.25878906 177.59814453 C125.26824554 175.94094894 125.26824554 175.94094894 125.27789307 174.25027466 C125.2738446 173.05651215 125.26979614 171.86274963 125.265625 170.6328125 C125.26753845 169.40593719 125.2694519 168.17906189 125.27142334 166.91500854 C125.27278549 164.31752314 125.26908696 161.72003095 125.26074219 159.12255859 C125.25006169 155.14795592 125.26062737 151.17380714 125.2734375 147.19921875 C125.27211555 144.67708234 125.26955243 142.1549462 125.265625 139.6328125 C125.26967346 138.44309845 125.27372192 137.2533844 125.27789307 136.02761841 C125.27158875 134.91651703 125.26528442 133.80541565 125.25878906 132.66064453 C125.25719788 131.68596222 125.25560669 130.71127991 125.25396729 129.70706177 C124.98231066 126.81144763 124.20673929 124.63249439 123 122 C122.34 122 121.68 122 121 122 C120.7510498 121.39639648 120.50209961 120.79279297 120.24560547 120.17089844 C118.79626695 117.64492468 117.54379433 116.76848581 115.0703125 115.265625 C114.28003662 114.77739258 113.48976074 114.28916016 112.67553711 113.78613281 C111.83385986 113.27920898 110.99218262 112.77228516 110.125 112.25 C108.39891231 111.18884448 106.6736518 110.12634229 104.94921875 109.0625 C104.10536621 108.54429687 103.26151367 108.02609375 102.39208984 107.4921875 C98.22754178 104.89433919 94.1919684 102.11563598 90.15234375 99.328125 C88.13784793 97.82495629 88.13784793 97.82495629 86 98 C86 97.34 86 96.68 86 96 C84.02 95.34 82.04 94.68 80 94 C80 93.34 80 92.68 80 92 C77.82068452 90.51694147 75.63932269 89.15589754 73.375 87.8125 C66.19925744 83.44242306 59.19802102 78.84838997 52.25 74.125 C51.29786621 73.48280518 50.34573242 72.84061035 49.36474609 72.17895508 C48.46578613 71.56560303 47.56682617 70.95225098 46.640625 70.3203125 C45.84172852 69.77648926 45.04283203 69.23266602 44.21972656 68.67236328 C39.82328345 65.36004088 39.82328345 65.36004088 38 63 C37.5300293 59.65600586 37.5300293 59.65600586 37.57421875 55.71484375 C37.57750687 55.01734512 37.58079498 54.3198465 37.58418274 53.60121155 C37.5998964 51.37933785 37.64394151 49.15898314 37.6875 46.9375 C37.6989947 45.43946539 37.70877887 43.94141662 37.71679688 42.44335938 C37.81909998 31.54270005 37.81909998 31.54270005 39 28 C42.17059833 26.73328553 45.41365145 26.87322889 48.79077148 26.87060547 C49.95555527 26.86745331 51.12033905 26.86430115 52.32041931 26.86105347 C54.20175316 26.86408981 54.20175316 26.86408981 56.12109375 26.8671875 C57.41314224 26.86623077 58.70519073 26.86527405 60.03639221 26.86428833 C62.7691467 26.86281571 65.50186846 26.86495156 68.23461914 26.86962891 C71.72932517 26.87532028 75.2239543 26.87204819 78.71865749 26.86605644 C82.06114233 26.86156343 85.40360674 26.86471431 88.74609375 26.8671875 C89.99829208 26.86516327 91.25049042 26.86313904 92.54063416 26.86105347 C94.29253807 26.86578171 94.29253807 26.86578171 96.07983398 26.87060547 C97.61727516 26.87179886 97.61727516 26.87179886 99.18577576 26.87301636 C101.8935315 26.99519592 104.36303638 27.39100348 107 28 C107.0093457 28.68102783 107.01869141 29.36205566 107.02832031 30.0637207 C107.08198131 33.14738647 107.16563551 36.22952794 107.25 39.3125 C107.26417969 40.38435547 107.27835937 41.45621094 107.29296875 42.56054688 C107.32519531 43.58857422 107.35742188 44.61660156 107.390625 45.67578125 C107.4220459 47.0975769 107.4220459 47.0975769 107.45410156 48.5480957 C107.79275281 51.1348882 107.79275281 51.1348882 109.88354492 52.81005859 C112.45582102 54.25627773 114.12651452 54.37006834 117.0625 54.3125 C117.91972656 54.30863281 118.77695312 54.30476563 119.66015625 54.30078125 C122.26887304 54.14148154 122.26887304 54.14148154 125 52 C125.30380707 48.90155007 125.41982766 46.00672387 125.3984375 42.90625 C125.40130768 42.0037854 125.40417786 41.1013208 125.40713501 40.17150879 C125.40917839 38.261631 125.40362944 36.35173241 125.39111328 34.44189453 C125.37506337 31.51157012 125.39095259 28.58262505 125.41015625 25.65234375 C125.40817387 23.79947611 125.40433029 21.94660933 125.3984375 20.09375 C125.40451019 19.21352173 125.41058289 18.33329346 125.4168396 17.4263916 C125.42061656 14.70533358 125.42061656 14.70533358 125 11 C121.942516 8.96167733 121.33954654 8.74906154 117.90100098 8.73930359 C117.06821121 8.73221878 116.23542145 8.72513397 115.37739563 8.71783447 C114.0120594 8.7215506 114.0120594 8.7215506 112.61914062 8.7253418 C111.65791794 8.72023087 110.69669525 8.71511993 109.7063446 8.70985413 C106.52291675 8.69593199 103.33970471 8.69691671 100.15625 8.69921875 C97.94811929 8.69533361 95.73998933 8.69099932 93.53186035 8.68623352 C88.90158669 8.67876592 84.27138927 8.67906677 79.64111328 8.68432617 C73.69893762 8.6901252 67.75707321 8.67318178 61.81494904 8.6499815 C57.25455898 8.63527212 52.69424441 8.63436858 48.13383484 8.63749123 C45.94251386 8.63697673 43.7511888 8.63171503 41.55989075 8.62167931 C38.50000585 8.60938479 35.44073397 8.61606433 32.38085938 8.62768555 C31.01552315 8.61621994 31.01552315 8.61621994 29.62260437 8.60452271 C28.37341972 8.61504417 28.37341972 8.61504417 27.09899902 8.6257782 C26.37560081 8.62561046 25.65220261 8.62544271 24.90688324 8.62526989 C22.42615498 9.11276884 21.53351931 10.02464942 20 12 Z M47 37 C45.95148427 40.81767264 45.80531513 44.55418714 45.75 48.5 C45.72421875 49.6034375 45.6984375 50.706875 45.671875 51.84375 C46.14419252 56.38699469 47.82496952 58.98999199 51.28076172 61.96044922 C54.13532261 63.94785502 56.99463734 65.92510198 59.875 67.875 C60.86886719 68.57625 61.86273438 69.2775 62.88671875 70 C63.84964844 70.65742188 64.81257813 71.31484375 65.8046875 71.9921875 C67.11928955 72.89493408 67.11928955 72.89493408 68.46044922 73.81591797 C71.53925147 75.2514295 72.82725801 75.09643101 76 74 C78.21183989 72.49617544 80.24783272 70.994185 82.3125 69.3125 C83.39143544 68.45380898 84.4708695 67.59574411 85.55078125 66.73828125 C86.09645752 66.28831787 86.64213379 65.83835449 87.2043457 65.37475586 C89 64 89 64 91.17651367 62.70532227 C95.50044731 60.02702056 95.50044731 60.02702056 97.68237305 55.60522461 C97.8964176 52.79860695 97.84777225 50.12209181 97.6875 47.3125 C97.67654297 46.36310547 97.66558594 45.41371094 97.65429688 44.43554688 C97.69797785 39.54939592 97.69797785 39.54939592 95.71411133 35.27026367 C91.76292325 32.34218625 87.14923789 32.83954093 82.41796875 32.83203125 C81.68556473 32.82870285 80.95316071 32.82537445 80.19856262 32.82194519 C78.65118027 32.81689212 77.10378707 32.81453636 75.55639648 32.81469727 C73.20603147 32.81251719 70.85614104 32.79436239 68.50585938 32.77539062 C66.99739743 32.77245496 65.48893326 32.77047132 63.98046875 32.76953125 C63.28543747 32.76234573 62.59040619 32.75516022 61.87431335 32.74775696 C56.47459697 32.77265396 50.96308783 33.03691217 47 37 Z M65.625 121.4375 C60.99520151 125.27400953 56.2030312 128.70150437 51.20361328 132.02905273 C48.09332888 134.03543833 48.09332888 134.03543833 46 137 C45.7106887 140.11817719 45.72222696 143.24494295 45.6875 146.375 C45.65849609 147.23867188 45.62949219 148.10234375 45.59960938 148.9921875 C45.59123047 149.8275 45.58285156 150.6628125 45.57421875 151.5234375 C45.55963623 152.28575684 45.54505371 153.04807617 45.5300293 153.83349609 C46.20933342 156.96499987 47.45182181 158.09842565 50 160 C52.91774281 160.65587883 52.91774281 160.65587883 56.171875 160.64453125 C57.38689697 160.68223633 58.60191895 160.71994141 59.85375977 160.75878906 C61.78239868 160.78537598 61.78239868 160.78537598 63.75 160.8125 C65.05573975 160.84182617 66.36147949 160.87115234 67.70678711 160.90136719 C82.76725354 161.80044905 82.76725354 161.80044905 97.359375 159.06640625 C100.1618214 155.53665829 99.69686313 151.55383853 99.6875 147.1875 C99.7484082 145.85235352 99.7484082 145.85235352 99.81054688 144.49023438 C99.83993828 139.57516403 99.83993828 139.57516403 97.73583984 135.26757812 C95.91314238 133.65759089 94.03225031 132.33579588 92 131 C91.23840576 130.44755615 90.47681152 129.8951123 89.69213867 129.32592773 C87.23812863 127.55041851 84.75099081 125.83355941 82.25 124.125 C81.40050781 123.53203125 80.55101562 122.9390625 79.67578125 122.328125 C78.85980469 121.76867187 78.04382813 121.20921875 77.203125 120.6328125 C76.09952637 119.87315186 76.09952637 119.87315186 74.97363281 119.09814453 C70.76721424 116.75766077 68.90502193 118.64239826 65.625 121.4375 Z " fill="#BEA063" transform="translate(177,177)"/>
<path d="M0 0 C1.23234375 -0.020625 2.4646875 -0.04125 3.734375 -0.0625 C4.92289063 -0.06765625 6.11140625 -0.0728125 7.3359375 -0.078125 C8.96474854 -0.09214355 8.96474854 -0.09214355 10.62646484 -0.10644531 C14.04941424 0.30045146 15.89736578 1.16677012 18.625 3.25 C21.1004085 8.8759284 20.53250129 13.35124162 19.625 19.25 C28.04 18.755 28.04 18.755 36.625 18.25 C37.08356032 13.45080711 37.08356032 13.45080711 37.4909668 8.6472168 C37.86680186 5.35722807 38.12858598 3.6454869 40.76245117 1.54711914 C44.18255151 -0.00264573 46.60407996 -0.10806769 50.3515625 -0.078125 C52.2696875 -0.07039063 52.2696875 -0.07039063 54.2265625 -0.0625 C55.2170459 -0.04703125 55.2170459 -0.04703125 56.22753906 -0.03125 C58.25083837 0.00001295 60.27335759 0.00973698 62.296875 0.015625 C72.16100543 0.09533514 72.16100543 0.09533514 75.625 1.25 C77.79938077 7.33826617 77.61636319 11.90527558 76.625 18.25 C82.565 18.25 88.505 18.25 94.625 18.25 C94.810625 14.8778125 94.810625 14.8778125 95 11.4375 C95.375 4.625 95.375 4.625 97.625 1.25 C103.01983469 -0.54827823 108.79146384 -0.06261286 114.4375 -0.125 C115.70916016 -0.16238281 116.98082031 -0.19976562 118.29101562 -0.23828125 C119.52142578 -0.24988281 120.75183594 -0.26148437 122.01953125 -0.2734375 C123.14206299 -0.29325684 124.26459473 -0.31307617 125.42114258 -0.33349609 C128.625 0.25 128.625 0.25 134.625 5.25 C134.625 22.74 134.625 40.23 134.625 58.25 C83.805 58.25 32.985 58.25 -19.375 58.25 C-19.375 5.25 -19.375 5.25 -16.375 1.25 C-11.11059817 -0.50480061 -5.5098933 0.02291016 0 0 Z " fill="#BEA062" transform="translate(190.375,115.75)"/>
<path d="M0 0 C1.1810733 0.00007553 2.36214661 0.00015106 3.57901001 0.00022888 C4.85924042 0.00539017 6.13947083 0.01055145 7.45849609 0.01586914 C8.76523285 0.01728409 10.0719696 0.01869904 11.41830444 0.02015686 C14.89369617 0.02397645 18.36904616 0.03380197 21.84442139 0.04486084 C25.39025305 0.05508696 28.93609144 0.05965706 32.48193359 0.06469727 C39.44028408 0.07542473 46.39860683 0.09249447 53.35693359 0.11352539 C53.35693359 0.77352539 53.35693359 1.43352539 53.35693359 2.11352539 C52.03693359 2.11352539 50.71693359 2.11352539 49.35693359 2.11352539 C49.02693359 3.43352539 48.69693359 4.75352539 48.35693359 6.11352539 C43.38160701 6.91515066 38.52332509 7.28286529 33.48193359 7.35961914 C31.98713573 7.39254215 30.49234421 7.42575405 28.99755859 7.45922852 C26.67403243 7.50661234 24.35053476 7.55113333 22.02685547 7.59033203 C19.76163295 7.63030373 17.49688707 7.68175749 15.23193359 7.73461914 C14.20350342 7.74724037 14.20350342 7.74724037 13.15429688 7.76011658 C8.60911644 7.87514523 4.62626062 8.53390132 0.35693359 10.11352539 C-1.7978693 14.22185837 -1.91453809 18.15432065 -1.89306641 22.73852539 C-1.89822266 23.84454102 -1.90337891 24.95055664 -1.90869141 26.09008789 C-1.63718244 29.18049872 -1.28393196 30.53475706 0.35693359 33.11352539 C2.61435644 34.97788304 2.61435644 34.97788304 5.32958984 36.67993164 C6.31121094 37.33026367 7.29283203 37.9805957 8.30419922 38.65063477 C9.33222656 39.31901367 10.36025391 39.98739258 11.41943359 40.67602539 C13.45679812 42.00330284 15.48960725 43.33760753 17.51708984 44.67993164 C18.42080322 45.26718018 19.3245166 45.85442871 20.25561523 46.45947266 C22.35693359 48.11352539 22.35693359 48.11352539 23.35693359 51.11352539 C22.71755859 51.38165039 22.07818359 51.64977539 21.41943359 51.92602539 C19.02561673 53.00020291 19.02561673 53.00020291 18.35693359 56.11352539 C19.84193359 56.60852539 19.84193359 56.60852539 21.35693359 57.11352539 C23.04443359 58.67602539 23.04443359 58.67602539 24.35693359 60.11352539 C23.86193359 61.10352539 23.86193359 61.10352539 23.35693359 62.11352539 C19.17101114 59.36430476 14.99033829 56.6073358 10.81420898 53.84326172 C9.39470566 52.90527461 7.97382449 51.96936904 6.55151367 51.03564453 C4.49986286 49.68823813 2.45338805 48.33326614 0.40771484 46.97680664 C-0.22269211 46.56513748 -0.85309906 46.15346832 -1.50260925 45.72932434 C-5.2982313 43.19970567 -8.79046506 40.72274971 -11.64306641 37.11352539 C-12.27416992 33.671875 -12.27416992 33.671875 -12.27197266 29.76586914 C-12.27438461 29.07215714 -12.27679657 28.37844513 -12.27928162 27.66371155 C-12.27830608 26.20380917 -12.26498214 24.74386846 -12.23999023 23.28417969 C-12.20560439 21.05348927 -12.21935844 18.82674853 -12.23876953 16.59594727 C-12.2318722 15.17340442 -12.22220081 13.75087176 -12.20947266 12.32836914 C-12.19859619 11.04051514 -12.18771973 9.75266113 -12.17651367 8.42578125 C-11.56008871 4.59830412 -10.6674546 3.44603929 -7.64306641 1.11352539 C-4.98399057 -0.21601253 -2.97741272 -0.00633492 0 0 Z " fill="#B09761" transform="translate(225.64306640625,202.886474609375)"/>
<path d="M0 0 C1.1810733 0.00007553 2.36214661 0.00015106 3.57901001 0.00022888 C4.85924042 0.00539017 6.13947083 0.01055145 7.45849609 0.01586914 C8.76523285 0.01728409 10.0719696 0.01869904 11.41830444 0.02015686 C14.89369617 0.02397645 18.36904616 0.03380197 21.84442139 0.04486084 C25.39025305 0.05508696 28.93609144 0.05965706 32.48193359 0.06469727 C39.44028408 0.07542473 46.39860683 0.09249447 53.35693359 0.11352539 C53.35693359 0.77352539 53.35693359 1.43352539 53.35693359 2.11352539 C52.03693359 2.11352539 50.71693359 2.11352539 49.35693359 2.11352539 C49.02693359 3.43352539 48.69693359 4.75352539 48.35693359 6.11352539 C43.38160701 6.91515066 38.52332509 7.28286529 33.48193359 7.35961914 C31.98713573 7.39254215 30.49234421 7.42575405 28.99755859 7.45922852 C26.67403243 7.50661234 24.35053476 7.55113333 22.02685547 7.59033203 C19.76163295 7.63030373 17.49688707 7.68175749 15.23193359 7.73461914 C14.20350342 7.74724037 14.20350342 7.74724037 13.15429688 7.76011658 C8.60925083 7.87514183 4.62702032 8.53691426 0.35693359 10.11352539 C-1.87013392 14.35615121 -2.00010932 18.75461689 -2.26806641 23.48852539 C-2.34283203 24.73375977 -2.41759766 25.97899414 -2.49462891 27.26196289 C-2.54361328 28.20297852 -2.59259766 29.14399414 -2.64306641 30.11352539 C-3.30306641 30.11352539 -3.96306641 30.11352539 -4.64306641 30.11352539 C-4.71654297 28.45063477 -4.71654297 28.45063477 -4.79150391 26.75415039 C-4.86655855 25.29058474 -4.94210522 23.82704427 -5.01806641 22.36352539 C-5.04900391 21.63391602 -5.07994141 20.90430664 -5.11181641 20.15258789 C-5.31991683 16.33741344 -5.62691114 13.38977771 -7.64306641 10.11352539 C-8.01090771 8.78929669 -8.35509622 7.45738627 -8.64306641 6.11352539 C-9.30306641 6.11352539 -9.96306641 6.11352539 -10.64306641 6.11352539 C-10.64306641 16.34352539 -10.64306641 26.57352539 -10.64306641 37.11352539 C-10.97306641 37.11352539 -11.30306641 37.11352539 -11.64306641 37.11352539 C-11.74210114 32.62953755 -11.81461124 28.14613248 -11.86279297 23.66137695 C-11.8828824 22.13652454 -11.91015957 20.61174892 -11.94482422 19.0871582 C-11.99346436 16.89262941 -12.01606037 14.6991207 -12.03369141 12.50415039 C-12.05463867 11.18447266 -12.07558594 9.86479492 -12.09716797 8.50512695 C-11.64306641 5.11352539 -11.64306641 5.11352539 -9.74365234 2.71411133 C-6.28892841 0.08171127 -4.30816748 -0.00916631 0 0 Z " fill="#A08853" transform="translate(225.64306640625,202.886474609375)"/>
<path d="M0 0 C4.60813849 -0.04957858 9.21612037 -0.08580385 13.82446289 -0.10986328 C15.39089667 -0.11989726 16.95731183 -0.13352754 18.52368164 -0.15087891 C20.78015753 -0.17524225 23.03638494 -0.18650916 25.29296875 -0.1953125 C25.98899704 -0.20563507 26.68502533 -0.21595764 27.40214539 -0.22659302 C31.36749979 -0.22750019 34.47905026 0.11703755 38 2 C38.495 2.99 38.495 2.99 39 4 C40.97888961 4.72693904 42.97954558 5.39816251 45 6 C45 6.33 45 6.66 45 7 C26.52 7 8.04 7 -11 7 C-11.66 5.68 -12.32 4.36 -13 3 C-12.34 3 -11.68 3 -11 3 C-10.67 3.66 -10.34 4.32 -10 5 C-9.01 5.33 -8.02 5.66 -7 6 C-6.34 4.68 -5.68 3.36 -5 2 C-3.68 2 -2.36 2 -1 2 C-0.67 1.34 -0.34 0.68 0 0 Z " fill="#C4A768" transform="translate(228,338)"/>
<path d="M0 0 C7.11587694 3.94877262 13.92388691 8.2016911 20.625 12.8125 C21.32367188 13.29243408 22.02234375 13.77236816 22.7421875 14.2668457 C25.35021396 16.07751171 27.749579 17.749579 30 20 C30.17502995 22.58103306 30.23162279 25.05308163 30.1953125 27.6328125 C30.1924826 28.38464813 30.18965271 29.13648376 30.18673706 29.91110229 C30.17552874 32.31589578 30.15042352 34.72031881 30.125 37.125 C30.11497102 38.75390088 30.10584503 40.38280758 30.09765625 42.01171875 C30.07558735 46.00795556 30.04105351 50.00391494 30 54 C29.67 54 29.34 54 29 54 C28.970271 52.71367676 28.970271 52.71367676 28.93994141 51.40136719 C28.86170479 48.21052358 28.77500657 45.0200526 28.68261719 41.82958984 C28.64440662 40.45044757 28.60953998 39.07120833 28.578125 37.69189453 C28.53230376 35.70583033 28.47333737 33.72008321 28.4140625 31.734375 C28.3826416 30.54038086 28.3512207 29.34638672 28.31884766 28.11621094 C28.01634655 25.15976065 27.70620087 23.41120106 26 21 C25.01 20.67 24.02 20.34 23 20 C23 26.93 23 33.86 23 41 C22.67 41 22.34 41 22 41 C22.04382813 39.9378125 22.08765625 38.875625 22.1328125 37.78125 C22.33193911 29.61995002 22.33193911 29.61995002 19.09375 22.40234375 C16.4963534 20.33511196 13.87871484 18.65216564 11 17 C9.03920583 15.7538637 7.08081812 14.50393178 5.125 13.25 C4.24070312 12.71890625 3.35640625 12.1878125 2.4453125 11.640625 C-0.03011885 9.97979246 -1.96889169 8.17281354 -4 6 C-0.25 4.875 -0.25 4.875 2 6 C1.34 4.02 0.68 2.04 0 0 Z " fill="#A48B5D" transform="translate(254,289)"/>
<path d="M0 0 C0.66 0.66 1.32 1.32 2 2 C-2.75 6 -2.75 6 -5 6 C-5.08703823 9.43734063 -5.14040272 12.87439837 -5.1875 16.3125 C-5.21263672 17.28896484 -5.23777344 18.26542969 -5.26367188 19.27148438 C-5.27333984 20.20927734 -5.28300781 21.14707031 -5.29296875 22.11328125 C-5.3086792 22.97735596 -5.32438965 23.84143066 -5.34057617 24.73168945 C-5.16116493 27.03616996 -5.16116493 27.03616996 -3.80078125 28.7734375 C-1.41696741 30.39711981 0.23265567 30.42868947 3.10546875 30.51171875 C4.08837891 30.54716797 5.07128906 30.58261719 6.08398438 30.61914062 C7.10814453 30.64169922 8.13230469 30.66425781 9.1875 30.6875 C10.22326172 30.72166016 11.25902344 30.75582031 12.32617188 30.79101562 C14.8840066 30.87352642 17.44149723 30.94266572 20 31 C20 31.33 20 31.66 20 32 C19.40461426 32.01981934 18.80922852 32.03963867 18.19580078 32.06005859 C15.50507847 32.15516126 12.81514852 32.26489842 10.125 32.375 C9.18785156 32.4059375 8.25070313 32.436875 7.28515625 32.46875 C5.94130859 32.52675781 5.94130859 32.52675781 4.5703125 32.5859375 C3.74289551 32.6173584 2.91547852 32.6487793 2.06298828 32.68115234 C-0.21986085 32.82599137 -0.21986085 32.82599137 -2 35 C-3.32 35 -4.64 35 -6 35 C-6.66 35.99 -7.32 36.98 -8 38 C-9.32 37.67 -10.64 37.34 -12 37 C-12 36.34 -12 35.68 -12 35 C-12.66 35 -13.32 35 -14 35 C-13.34 35.99 -12.68 36.98 -12 38 C-9.21401827 38.47879398 -9.21401827 38.47879398 -5.89794922 38.43237305 C-4.61677216 38.45216721 -3.33559509 38.47196136 -2.01559448 38.49235535 C-0.61196031 38.49912566 0.79167546 38.50557246 2.1953125 38.51171875 C3.62736564 38.52855841 5.05940393 38.54670768 6.49142456 38.56611633 C10.26266847 38.61370058 14.03385221 38.643455 17.80529785 38.66955566 C21.65287158 38.69931904 25.50023778 38.74586371 29.34765625 38.79101562 C36.89833472 38.87714436 44.44902813 38.94444659 52 39 C52 39.33 52 39.66 52 40 C43.55960805 40.04628524 35.11926889 40.08184969 26.67878151 40.10362434 C22.75976716 40.11407365 18.84083947 40.12825362 14.921875 40.15087891 C11.14176961 40.17256661 7.36174772 40.18455998 3.58158493 40.18975449 C2.13744161 40.19345759 0.693303 40.2006886 -0.7508049 40.21146011 C-2.76920894 40.22592017 -4.78769652 40.22681645 -6.80615234 40.22705078 C-8.53156754 40.23371262 -8.53156754 40.23371262 -10.2918396 40.24050903 C-13 40 -13 40 -15 38 C-15.22705078 35.29443359 -15.22705078 35.29443359 -15.1953125 31.8984375 C-15.18886719 30.68671875 -15.18242187 29.475 -15.17578125 28.2265625 C-15.15902344 26.95554687 -15.14226562 25.68453125 -15.125 24.375 C-15.11146484 22.456875 -15.11146484 22.456875 -15.09765625 20.5 C-15.07402303 17.33314833 -15.04107629 14.16666576 -15 11 C-14.67 11 -14.34 11 -14 11 C-13.67 15.29 -13.34 19.58 -13 24 C-11.02 24.33 -9.04 24.66 -7 25 C-7.04640625 23.68644531 -7.0928125 22.37289063 -7.140625 21.01953125 C-7.17815266 19.28387696 -7.21455175 17.54819801 -7.25 15.8125 C-7.30027344 14.51602539 -7.30027344 14.51602539 -7.3515625 13.19335938 C-7.41612328 8.98076831 -7.37995841 6.63407589 -5.171875 2.94921875 C-3 1 -3 1 0 0 Z " fill="#967F4F" transform="translate(229,306)"/>
<path d="M0 0 C0.66 0 1.32 0 2 0 C5.6507185 5.47607775 6.27637911 9.79737617 6.125 16.3125 C6.11597656 17.05306641 6.10695312 17.79363281 6.09765625 18.55664062 C6.07424213 20.37123467 6.03837615 22.18566071 6 24 C6.99 23.67 7.98 23.34 9 23 C9.99 26.3 10.98 29.6 12 33 C10.68 33.99 9.36 34.98 8 36 C1.72340426 34.72340426 1.72340426 34.72340426 0 33 C-0.08843793 30.55169574 -0.11528752 28.13179401 -0.09765625 25.68359375 C-0.0962413 24.95253922 -0.09482635 24.22148468 -0.09336853 23.46827698 C-0.08775408 21.12464368 -0.07519922 18.78110461 -0.0625 16.4375 C-0.05748686 14.85221492 -0.05292363 13.26692834 -0.04882812 11.68164062 C-0.03777997 7.7877239 -0.02050572 3.89387795 0 0 Z " fill="#C3A569" transform="translate(215,209)"/>
<path d="M0 0 C2 2 2 2 4 8 C63.73 7.67 123.46 7.34 185 7 C182.58366188 9.41633812 181.34174974 9.24158472 178.04466301 9.27214891 C177.35216436 9.26836958 176.65966571 9.26459026 175.94618225 9.26069641 C175.21155067 9.26452196 174.4769191 9.26834751 173.72002596 9.27228898 C171.24565198 9.28265043 168.77150869 9.27862094 166.29711914 9.2746582 C164.52831303 9.27900295 162.7595088 9.2841853 160.9907074 9.29014587 C156.17670725 9.3035728 151.36278542 9.30411045 146.54877019 9.30158257 C142.53514101 9.30051534 138.52152785 9.30538986 134.50790209 9.310188 C125.04179567 9.32129599 115.57572893 9.32171335 106.10961914 9.31567383 C96.33252414 9.30963196 86.55557298 9.32194752 76.77850252 9.3432439 C68.39461123 9.36083658 60.01076582 9.36686495 51.62685674 9.36360615 C46.61497334 9.3617894 41.60319252 9.3644684 36.59132576 9.37832069 C31.87913972 9.39085653 27.16717853 9.38899538 22.45499611 9.37590981 C20.72275467 9.37353517 18.99049762 9.37631027 17.25827408 9.38453293 C14.8988522 9.39492759 12.54019502 9.38695923 10.18080139 9.3742218 C9.49053346 9.38159609 8.80026553 9.38897037 8.08908039 9.39656812 C5.28116933 9.36453757 3.41512925 9.28377835 1.06291866 7.67582989 C-0.53733727 5.15281771 -0.19393176 2.90897641 0 0 Z " fill="#5C4B27" transform="translate(157,375)"/>
<path d="M0 0 C47.19 0 94.38 0 143 0 C142.67 1.98 142.34 3.96 142 6 C141.67 4.68 141.34 3.36 141 2 C123.58038411 1.97665532 106.16077308 1.9590131 88.74114513 1.94818783 C80.65318975 1.94302821 72.56524407 1.93599186 64.47729492 1.92456055 C57.42909038 1.91460352 50.38089286 1.90814413 43.33268148 1.90591151 C39.59959341 1.90460614 35.86652546 1.90153121 32.13344383 1.89426994 C27.96940589 1.88623587 23.80540308 1.88600952 19.64135742 1.88647461 C17.77803772 1.8810817 17.77803772 1.8810817 15.8770752 1.87557983 C14.74545456 1.8769545 13.61383392 1.87832916 12.44792175 1.87974548 C11.46252505 1.87882369 10.47712835 1.8779019 9.46187115 1.87695217 C6.86335272 1.89639571 6.86335272 1.89639571 4 3 C4.33 6.96 4.66 10.92 5 15 C3 11 3 11 0 0 Z " fill="#B09D76" transform="translate(177,177)"/>
<path d="M0 0 C0.66 0.33 1.32 0.66 2 1 C2 1.66 2 2.32 2 3 C2.67417969 3.23460937 3.34835938 3.46921875 4.04296875 3.7109375 C7.7377779 5.32162049 10.95451188 7.41170196 14.3125 9.625 C14.95767578 10.04523438 15.60285156 10.46546875 16.26757812 10.8984375 C17.84760724 11.92838241 19.42416047 12.96365628 21 14 C20.67 14.99 20.34 15.98 20 17 C19.34 17 18.68 17 18 17 C18 16.34 18 15.68 18 15 C16.68 15 15.36 15 14 15 C13.67 16.65 13.34 18.3 13 20 C11.66144944 19.21718695 10.32926356 18.42348123 9 17.625 C8.2575 17.18414062 7.515 16.74328125 6.75 16.2890625 C6.1725 15.86367188 5.595 15.43828125 5 15 C5 14.34 5 13.68 5 13 C4.2575 12.7525 3.515 12.505 2.75 12.25 C-0.20124062 10.90852699 -1.84814974 9.39094474 -4 7 C-3.030625 6.87625 -2.06125 6.7525 -1.0625 6.625 C-0.051875 6.41875 0.95875 6.2125 2 6 C2.33 5.34 2.66 4.68 3 4 C2.34 4 1.68 4 1 4 C0.67 2.68 0.34 1.36 0 0 Z " fill="#9E8656" transform="translate(200,252)"/>
<path d="M0 0 C3.66896736 -0.53955402 4.96598367 -0.0219069 8.14306641 2.02416992 C10.81426426 4.36034753 10.99007014 4.94622572 11.68115234 8.6887207 C11.6802113 10.10143047 11.64682011 11.51438369 11.5859375 12.92578125 C11.57744781 13.67337204 11.56895813 14.42096283 11.56021118 15.19120789 C11.52676529 17.56647188 11.45151814 19.93827219 11.375 22.3125 C11.3448883 23.92768514 11.31751458 25.54292381 11.29296875 27.15820312 C11.22700501 31.10679239 11.12355759 35.05281015 11 39 C10.67 39 10.34 39 10 39 C9.98018066 38.14245117 9.96036133 37.28490234 9.93994141 36.40136719 C9.86170479 33.21052358 9.77500657 30.0200526 9.68261719 26.82958984 C9.64440662 25.45044757 9.60953998 24.07120833 9.578125 22.69189453 C9.53230376 20.70583033 9.47333737 18.72008321 9.4140625 16.734375 C9.3826416 15.54038086 9.3512207 14.34638672 9.31884766 13.11621094 C9.01634655 10.15976065 8.70620087 8.41120106 7 6 C6.01 5.67 5.02 5.34 4 5 C4 11.93 4 18.86 4 26 C3.67 26 3.34 26 3 26 C2.99742187 24.90300781 2.99484375 23.80601562 2.9921875 22.67578125 C2.95465286 21.22131393 2.91550514 19.76688762 2.875 18.3125 C2.87757813 17.59126953 2.88015625 16.87003906 2.8828125 16.12695312 C2.75529731 11.91784305 2.75529731 11.91784305 0.60644531 8.43505859 C-0.888934 7.23813976 -2.44179035 6.11389258 -4 5 C-4 4.34 -4 3.68 -4 3 C-2.02 3 -0.04 3 2 3 C2 2.34 2 1.68 2 1 C1.34 0.67 0.68 0.34 0 0 Z " fill="#705C35" transform="translate(273,304)"/>
<path d="M0 0 C0.33 0 0.66 0 1 0 C1 16.5 1 33 1 50 C0.01 50 -0.98 50 -2 50 C-1.88258616 43.20055159 -1.75775166 36.40126887 -1.62768555 29.60205078 C-1.58429624 27.28762931 -1.54262416 24.973175 -1.50268555 22.65869141 C-1.44507968 19.33746427 -1.38135749 16.01640308 -1.31640625 12.6953125 C-1.29969376 11.65569366 -1.28298126 10.61607483 -1.26576233 9.54495239 C-1.24581711 8.58410736 -1.22587189 7.62326233 -1.20532227 6.63330078 C-1.18200584 5.36089035 -1.18200584 5.36089035 -1.15821838 4.06277466 C-1 2 -1 2 0 0 Z " fill="#8A764D" transform="translate(195,313)"/>
<path d="M0 0 C2.97 1.65 5.94 3.3 9 5 C9 5.99 9 6.98 9 8 C9.66 8 10.32 8 11 8 C11 8.99 11 9.98 11 11 C9.4375 12.1875 9.4375 12.1875 7 13 C2.34381955 11.50337057 -0.80541411 9.70571963 -4 6 C-0.25 4.875 -0.25 4.875 2 6 C1.34 4.02 0.68 2.04 0 0 Z " fill="#9D8757" transform="translate(254,289)"/>
<path d="M0 0 C4.875 2.625 4.875 2.625 6 6 C5.360625 6.268125 4.72125 6.53625 4.0625 6.8125 C1.66868314 7.88667752 1.66868314 7.88667752 1 11 C1.99 11.33 2.98 11.66 4 12 C5.6875 13.5625 5.6875 13.5625 7 15 C6.67 15.66 6.34 16.32 6 17 C1.05 13.7 -3.9 10.4 -9 7 C-6.62026494 4.62026494 -5.26213934 4.4893209 -2 4 C-1.34 4 -0.68 4 0 4 C0 2.68 0 1.36 0 0 Z " fill="#B39960" transform="translate(243,248)"/>
<path d="M0 0 C1.32 0.66 2.64 1.32 4 2 C4.66 1.34 5.32 0.68 6 0 C6 1.65 6 3.3 6 5 C5.01 5.33 4.02 5.66 3 6 C3 6.66 3 7.32 3 8 C1.35 8 -0.3 8 -2 8 C-2.33 7.01 -2.66 6.02 -3 5 C-3.969375 5.20625 -4.93875 5.4125 -5.9375 5.625 C-10.52772745 6.31165288 -14.58126458 5.21239679 -19 4 C-19 3.67 -19 3.34 -19 3 C-17.31970703 2.92652344 -17.31970703 2.92652344 -15.60546875 2.8515625 C-14.13278797 2.77652144 -12.66013293 2.70097418 -11.1875 2.625 C-10.44951172 2.5940625 -9.71152344 2.563125 -8.95117188 2.53125 C-5.18106885 2.32653852 -3.20349259 2.13566173 0 0 Z " fill="#B79B5C" transform="translate(275,334)"/>
<path d="M0 0 C15.51 0 31.02 0 47 0 C47 0.33 47 0.66 47 1 C45.8039917 1.02505615 44.6079834 1.0501123 43.37573242 1.07592773 C38.94202805 1.17003852 34.508479 1.27025036 30.07495117 1.37231445 C28.15539175 1.4156494 26.23579415 1.45732552 24.31616211 1.49731445 C21.55831386 1.55505178 18.80065759 1.61873635 16.04296875 1.68359375 C15.18350143 1.70030624 14.32403412 1.71701874 13.43852234 1.73423767 C12.63791885 1.75418289 11.83731537 1.77412811 11.01245117 1.79467773 C10.3085173 1.81022202 9.60458344 1.8257663 8.87931824 1.84178162 C6.77300917 1.94481604 6.77300917 1.94481604 4 3 C4.33 6.96 4.66 10.92 5 15 C3 11 3 11 0 0 Z " fill="#AE9B73" transform="translate(177,177)"/>
<path d="M0 0 C0.66 0.33 1.32 0.66 2 1 C2 2.65 2 4.3 2 6 C2.99 6.33 3.98 6.66 5 7 C5 7.66 5 8.32 5 9 C6.32 9.33 7.64 9.66 9 10 C8.67 10.99 8.34 11.98 8 13 C6.0625 13.75 6.0625 13.75 4 14 C3.34 13.67 2.68 13.34 2 13 C2 12.34 2 11.68 2 11 C1.34 11 0.68 11 0 11 C-0.33 9.35 -0.66 7.7 -1 6 C-1.99 5.67 -2.98 5.34 -4 5 C-2.25 1.125 -2.25 1.125 0 0 Z " fill="#C6A665" transform="translate(194,246)"/>
<path d="M0 0 C2.625 -0.1875 2.625 -0.1875 5 0 C5.33 0.66 5.66 1.32 6 2 C8.52733235 2.65555119 8.52733235 2.65555119 11 3 C11.33 2.34 11.66 1.68 12 1 C12 1.99 12 2.98 12 4 C12.66 4 13.32 4 14 4 C14.33 3.01 14.66 2.02 15 1 C15.5625 2.9375 15.5625 2.9375 16 5 C15 6 15 6 13.109375 6.1328125 C2.64725458 6.09816972 2.64725458 6.09816972 -2 3 C-1.34 2.01 -0.68 1.02 0 0 Z " fill="#C4A562" transform="translate(267,339)"/>
<path d="M0 0 C0.33 0 0.66 0 1 0 C1 9.24 1 18.48 1 28 C-0.32 28.33 -1.64 28.66 -3 29 C-2.84152588 28.4337793 -2.68305176 27.86755859 -2.51977539 27.28417969 C-1.99214152 24.9654655 -1.795844 22.82641603 -1.68359375 20.453125 C-1.62075195 19.18662109 -1.62075195 19.18662109 -1.55664062 17.89453125 C-1.51732422 17.02183594 -1.47800781 16.14914062 -1.4375 15.25 C-1.39431641 14.36183594 -1.35113281 13.47367187 -1.30664062 12.55859375 C-1.20086385 10.37254037 -1.09877454 8.18637911 -1 6 C-1.66 5.67 -2.32 5.34 -3 5 C-2.34 4.67 -1.68 4.34 -1 4 C-0.34786708 1.97536745 -0.34786708 1.97536745 0 0 Z " fill="#BFA773" transform="translate(282,314)"/>
<path d="M0 0 C0.33 0.66 0.66 1.32 1 2 C1.33 1.34 1.66 0.68 2 0 C4.25 0.125 4.25 0.125 7 1 C9.1875 3.9375 9.1875 3.9375 11 7 C11.66 7.66 12.32 8.32 13 9 C13 9.99 13 10.98 13 12 C10.8125 11.9375 10.8125 11.9375 8 11 C6.55188481 9.28168256 5.38151668 7.51067161 4.2109375 5.59375 C2.99762627 3.68583971 2.99762627 3.68583971 0 3 C0 2.01 0 1.02 0 0 Z " fill="#C6A667" transform="translate(271,273)"/>
<path d="M0 0 C2 2 2 2 4 8 C16.21 8 28.42 8 41 8 C41 8.33 41 8.66 41 9 C35.64317867 9.0741205 30.28665538 9.12858776 24.92944336 9.16479492 C23.10679933 9.1798876 21.28419164 9.20036395 19.46166992 9.22631836 C16.842845 9.26268103 14.22449993 9.27972124 11.60546875 9.29296875 C10.38188911 9.31619453 10.38188911 9.31619453 9.1335907 9.33988953 C3.44635792 9.34158391 3.44635792 9.34158391 1.27241516 7.67793274 C-0.6167704 5.18666542 -0.20187041 3.02805618 0 0 Z " fill="#5E4928" transform="translate(157,375)"/>
<path d="M0 0 C3.54121297 1.96734054 6.58126037 3.71742479 9 7 C10.56361962 13.02417791 9.86855442 18.92011904 9 25 C8.67 25 8.34 25 8 25 C7.93941406 23.95199219 7.87882812 22.90398437 7.81640625 21.82421875 C7.73198262 20.44529952 7.64733553 19.06639395 7.5625 17.6875 C7.52318359 16.99720703 7.48386719 16.30691406 7.44335938 15.59570312 C7.25072585 12.52838465 6.97677283 9.93031848 6 7 C4.35 6.67 2.7 6.34 1 6 C1.33 4.68 1.66 3.36 2 2 C1.34 2 0.68 2 0 2 C0 1.34 0 0.68 0 0 Z " fill="#938254" transform="translate(309,288)"/>
<path d="M0 0 C2.31 0.33 4.62 0.66 7 1 C7.33 2.32 7.66 3.64 8 5 C7.01 5.66 6.02 6.32 5 7 C5 6.34 5 5.68 5 5 C2.69 5.66 0.38 6.32 -2 7 C-2 3 -2 3 0 0 Z " fill="#C5A568" transform="translate(236,247)"/>
<path d="M0 0 C1.65 0.33 3.3 0.66 5 1 C4.0409375 1.804375 4.0409375 1.804375 3.0625 2.625 C0.61470596 5.44367193 0.33285388 7.33860732 0 11 C-0.66 11 -1.32 11 -2 11 C-2 13.64 -2 16.28 -2 19 C-2.33 19 -2.66 19 -3 19 C-3.0814222 16.77144426 -3.13938079 14.54202345 -3.1875 12.3125 C-3.22230469 11.07113281 -3.25710937 9.82976562 -3.29296875 8.55078125 C-2.9846829 4.81435679 -2.18088273 2.99370517 0 0 Z " fill="#968257" transform="translate(183,293)"/>
<path d="M0 0 C0.99 0.33 1.98 0.66 3 1 C2.67 14.2 2.34 27.4 2 41 C1.67 41 1.34 41 1 41 C0.67 27.47 0.34 13.94 0 0 Z " fill="#C0A86D" transform="translate(185,199)"/>
<path d="M0 0 C0.66 0.66 1.32 1.32 2 2 C-2.75 6 -2.75 6 -5 6 C-5.33 12.93 -5.66 19.86 -6 27 C-6.33 27 -6.66 27 -7 27 C-7.11660824 23.60445765 -7.18738372 20.20943321 -7.25 16.8125 C-7.28351563 15.85279297 -7.31703125 14.89308594 -7.3515625 13.90429688 C-7.45034943 6.76694123 -7.45034943 6.76694123 -5.171875 2.88671875 C-3 1 -3 1 0 0 Z " fill="#8E7B52" transform="translate(229,306)"/>
<path d="M0 0 C1.65 0 3.3 0 5 0 C1.47169239 2.86392794 -2.12984917 5.58784278 -5.8125 8.25 C-6.78832031 8.95640625 -7.76414063 9.6628125 -8.76953125 10.390625 C-9.50558594 10.92171875 -10.24164063 11.4528125 -11 12 C-11.66 11.67 -12.32 11.34 -13 11 C-11.85408512 7.56225537 -11.04311402 6.82586841 -8 5 C-6.68 5 -5.36 5 -4 5 C-4 4.34 -4 3.68 -4 3 C-3.01 3 -2.02 3 -1 3 C-0.67 2.01 -0.34 1.02 0 0 Z " fill="#A28D5F" transform="translate(245,294)"/>
<path d="M0 0 C1.67180274 0.94934513 3.33733936 1.90973313 5 2.875 C5.928125 3.40867187 6.85625 3.94234375 7.8125 4.4921875 C8.8953125 5.23855469 8.8953125 5.23855469 10 6 C10 6.66 10 7.32 10 8 C6.71249056 9.03321725 5.42202124 9.20141923 2.25 7.6875 C0 6 0 6 -1 4 C-0.34 4 0.32 4 1 4 C0.67 2.68 0.34 1.36 0 0 Z " fill="#AA905D" transform="translate(299,281)"/>
<path d="M0 0 C0 2.97 0 5.94 0 9 C5.94 9 11.88 9 18 9 C18 9.33 18 9.66 18 10 C11.73 10 5.46 10 -1 10 C-1 9.34 -1 8.68 -1 8 C-1.66 8 -2.32 8 -3 8 C-3 5.69 -3 3.38 -3 1 C-1 0 -1 0 0 0 Z " fill="#806840" transform="translate(267,125)"/>
<path d="M0 0 C3.465 1.98 3.465 1.98 7 4 C5.35 5.98 3.7 7.96 2 10 C-2.875 8.25 -2.875 8.25 -4 6 C-2.02 5.67 -0.04 5.34 2 5 C2 4.01 2 3.02 2 2 C1.34 2 0.68 2 0 2 C0 1.34 0 0.68 0 0 Z " fill="#9C8354" transform="translate(263,295)"/>
<path d="M0 0 C1.2065625 0.0309375 1.2065625 0.0309375 2.4375 0.0625 C2.4375 0.7225 2.4375 1.3825 2.4375 2.0625 C3.0975 2.0625 3.7575 2.0625 4.4375 2.0625 C4.4375 3.0525 4.4375 4.0425 4.4375 5.0625 C2.625 6.125 2.625 6.125 0.4375 7.0625 C-0.5525 6.7325 -1.5425 6.4025 -2.5625 6.0625 C-2.94468767 4.40635343 -3.27645102 2.73792976 -3.5625 1.0625 C-2.5625 0.0625 -2.5625 0.0625 0 0 Z " fill="#C4A469" transform="translate(260.5625,294.9375)"/>
<path d="M0 0 C6.14587738 0.1205074 6.14587738 0.1205074 8.578125 2.625 C9.80796624 4.37787717 10.94469135 6.13740456 12 8 C8.40941456 8 7.25212529 7.10368497 4.3125 5.125 C3.50425781 4.59132813 2.69601562 4.05765625 1.86328125 3.5078125 C1.24839844 3.01023437 0.63351562 2.51265625 0 2 C0 1.34 0 0.68 0 0 Z " fill="#927E50" transform="translate(267,275)"/>
<path d="M0 0 C6.27 0 12.54 0 19 0 C18.67 1.65 18.34 3.3 18 5 C17.34 4.67 16.68 4.34 16 4 C16 3.34 16 2.68 16 2 C15.030625 2.20625 14.06125 2.4125 13.0625 2.625 C8.47227255 3.31165288 4.41873542 2.21239679 0 1 C0 0.67 0 0.34 0 0 Z " fill="#8B7851" transform="translate(256,337)"/>
<path d="M0 0 C1.32 0.66 2.64 1.32 4 2 C4 2.99 4 3.98 4 5 C4.99 5.33 5.98 5.66 7 6 C7 6.66 7 7.32 7 8 C7.66 8.33 8.32 8.66 9 9 C8.01 9.495 8.01 9.495 7 10 C4.3984375 8.56640625 4.3984375 8.56640625 1.375 6.5625 C0.37210937 5.90378906 -0.63078125 5.24507813 -1.6640625 4.56640625 C-2.43492187 4.04949219 -3.20578125 3.53257812 -4 3 C-3.34 2.67 -2.68 2.34 -2 2 C-1.01 2.33 -0.02 2.66 1 3 C0.67 2.01 0.34 1.02 0 0 Z " fill="#907D56" transform="translate(283,282)"/>
<path d="M0 0 C4.875 1.75 4.875 1.75 6 4 C3.03 3.505 3.03 3.505 0 3 C-0.66 4.98 -1.32 6.96 -2 9 C-5 9 -5 9 -6.6875 7.5 C-7.120625 7.005 -7.55375 6.51 -8 6 C-6.68 6 -5.36 6 -4 6 C-4 5.01 -4 4.02 -4 3 C-3.01 2.67 -2.02 2.34 -1 2 C-0.67 1.34 -0.34 0.68 0 0 Z " fill="#9C8453" transform="translate(236,244)"/>
<path d="M0 0 C0.33 0.66 0.66 1.32 1 2 C0.34 2 -0.32 2 -1 2 C-1.33 3.98 -1.66 5.96 -2 8 C-3.65 8.33 -5.3 8.66 -7 9 C-6.5047783 5.33535945 -5.9791794 3.29167646 -3 1 C-2.01 0.67 -1.02 0.34 0 0 Z " fill="#AF9564" transform="translate(165,367)"/>
<path d="M0 0 C0.99 0.33 1.98 0.66 3 1 C1.625 2.5 1.625 2.5 0 4 C-0.66 4 -1.32 4 -2 4 C-1.67 5.65 -1.34 7.3 -1 9 C-2.65 8.67 -4.3 8.34 -6 8 C-6.33 6.68 -6.66 5.36 -7 4 C-4 2 -4 2 0 2 C0 1.34 0 0.68 0 0 Z " fill="#937D54" transform="translate(290,265)"/>
<path d="M0 0 C0.66 0.33 1.32 0.66 2 1 C2 1.66 2 2.32 2 3 C4.475 3.99 4.475 3.99 7 5 C5.625 6.5 5.625 6.5 4 8 C3.34 8 2.68 8 2 8 C1.67 8.99 1.34 9.98 1 11 C-0.65 10.01 -2.3 9.02 -4 8 C-3.401875 7.896875 -2.80375 7.79375 -2.1875 7.6875 C0.28243264 6.91123545 1.32251235 5.92911079 3 4 C2.34 4 1.68 4 1 4 C0.67 2.68 0.34 1.36 0 0 Z " fill="#927C52" transform="translate(200,252)"/>
<path d="M0 0 C2.31 0.33 4.62 0.66 7 1 C6.01 1.66 5.02 2.32 4 3 C4.33 6.96 4.66 10.92 5 15 C3.31626595 11.6325319 2.31781585 8.84984234 1.375 5.25 C1.11460937 4.26515625 0.85421875 3.2803125 0.5859375 2.265625 C0.39257812 1.51796875 0.19921875 0.7703125 0 0 Z " fill="#918157" transform="translate(177,177)"/>
<path d="M0 0 C3.625 0.375 3.625 0.375 7 1 C7 1.33 7 1.66 7 2 C5.02 2.66 3.04 3.32 1 4 C0.67 5.98 0.34 7.96 0 10 C-0.66 10 -1.32 10 -2 10 C-2.1953125 3.9453125 -2.1953125 3.9453125 -2 2 C-1.34 1.34 -0.68 0.68 0 0 Z " fill="#A49062" transform="translate(231,117)"/>
<path d="M0 0 C0.33 0.66 0.66 1.32 1 2 C0 3 -1 4 -2 5 C-2.33 5.66 -2.66 6.32 -3 7 C-4.9375 6.1875 -4.9375 6.1875 -7 5 C-7.33 4.01 -7.66 3.02 -8 2 C-5.36 1.34 -2.72 0.68 0 0 Z " fill="#C6A76A" transform="translate(235,244)"/>
<path d="M0 0 C3.59391114 1.33488128 6.75490696 2.96022723 10 5 C8.68 6.32 7.36 7.64 6 9 C4 8 4 8 3 5 C2.02308143 3.31970006 1.02611949 1.65071396 0 0 Z " fill="#967E52" transform="translate(320,358)"/>
<path d="M0 0 C0.70640625 0.05220703 1.4128125 0.10441406 2.140625 0.15820312 C3.88579987 0.28791207 5.63045725 0.42454954 7.375 0.5625 C7.375 0.8925 7.375 1.2225 7.375 1.5625 C6.47136719 1.62308594 5.56773437 1.68367188 4.63671875 1.74609375 C3.45722656 1.82988281 2.27773437 1.91367187 1.0625 2 C-0.10925781 2.08121094 -1.28101563 2.16242188 -2.48828125 2.24609375 C-5.65090958 2.4492371 -5.65090958 2.4492371 -8.625 3.5625 C-9.285 4.5525 -9.945 5.5425 -10.625 6.5625 C-10.25 3.625 -10.25 3.625 -9.625 0.5625 C-6.5270403 -0.98647985 -3.36283448 -0.26989539 0 0 Z " fill="#917B54" transform="translate(203.625,311.4375)"/>
<path d="M0 0 C2.16874252 0.50603992 3.99967627 0.99983813 6 2 C6.625 4.5625 6.625 4.5625 7 7 C7.66 7 8.32 7 9 7 C8.67 7.66 8.34 8.32 8 9 C6.66079162 7.88200014 5.32877444 6.75538103 4 5.625 C2.88625 4.68527344 2.88625 4.68527344 1.75 3.7265625 C1.1725 3.15679687 0.595 2.58703125 0 2 C0 1.34 0 0.68 0 0 Z " fill="#917E56" transform="translate(187,250)"/>
<path d="M0 0 C0.66 0.33 1.32 0.66 2 1 C2 4.63 2 8.26 2 12 C1.34 12 0.68 12 0 12 C0 10.35 0 8.7 0 7 C-0.99 7.33 -1.98 7.66 -3 8 C-3.33 7.01 -3.66 6.02 -4 5 C-2.68 5 -1.36 5 0 5 C0 3.35 0 1.7 0 0 Z " fill="#927E4D" transform="translate(317,345)"/>
<path d="M0 0 C0.33 1.65 0.66 3.3 1 5 C-2 6 -2 6 -4.1875 5.0625 C-4.785625 4.711875 -5.38375 4.36125 -6 4 C-2.25 0 -2.25 0 0 0 Z " fill="#C4A668" transform="translate(207,258)"/>
<path d="M0 0 C2.31 0 4.62 0 7 0 C7.12375 0.639375 7.2475 1.27875 7.375 1.9375 C7.684375 2.9584375 7.684375 2.9584375 8 4 C8.66 4.33 9.32 4.66 10 5 C5.27635085 5 3.7011388 3.7758541 0 1 C0 0.67 0 0.34 0 0 Z " fill="#8E7C4B" transform="translate(219,244)"/>
<path d="M0 0 C1.5625 1.0625 1.5625 1.0625 3 3 C2.875 6.5625 2.875 6.5625 2 10 C-1 12 -1 12 -3.1875 11.625 C-3.785625 11.41875 -4.38375 11.2125 -5 11 C-3.68 10.67 -2.36 10.34 -1 10 C-1 9.34 -1 8.68 -1 8 C-0.34 8 0.32 8 1 8 C0.67 5.36 0.34 2.72 0 0 Z " fill="#867548" transform="translate(180,348)"/>
<path d="M0 0 C0.99 0.33 1.98 0.66 3 1 C2.67 2.65 2.34 4.3 2 6 C2.66 6 3.32 6 4 6 C3.67 7.32 3.34 8.64 3 10 C2.67 9.34 2.34 8.68 2 8 C1.34 8 0.68 8 0 8 C-0.79953138 4.71303767 -1.09658936 3.28976808 0 0 Z " fill="#B09356" transform="translate(220,209)"/>
<path d="M0 0 C3 1.625 3 1.625 6 4 C6.375 7.25 6.375 7.25 6 10 C3 6.25 3 6.25 3 4 C2.34 4 1.68 4 1 4 C0.67 2.68 0.34 1.36 0 0 Z " fill="#9A865C" transform="translate(277,304)"/>
<path d="M0 0 C2.475 0.99 2.475 0.99 5 2 C3.625 3.5 3.625 3.5 2 5 C1.34 5 0.68 5 0 5 C0 5.66 0 6.32 0 7 C-0.99 6.67 -1.98 6.34 -3 6 C-2.01 4.02 -1.02 2.04 0 0 Z " fill="#B0985A" transform="translate(249,286)"/>
<path d="M0 0 C0.66 0.33 1.32 0.66 2 1 C1.67 1.99 1.34 2.98 1 4 C0.34 4 -0.32 4 -1 4 C-1.33 4.99 -1.66 5.98 -2 7 C-3.32 6.34 -4.64 5.68 -6 5 C-4.02 3.35 -2.04 1.7 0 0 Z " fill="#947B51" transform="translate(200,279)"/>
<path d="M0 0 C0 0.66 0 1.32 0 2 C-0.66 2 -1.32 2 -2 2 C-1.67 3.32 -1.34 4.64 -1 6 C-5.875 4.25 -5.875 4.25 -7 2 C-2.25 0 -2.25 0 0 0 Z " fill="#9C8153" transform="translate(241,252)"/>
<path d="M0 0 C-0.375 1.9375 -0.375 1.9375 -1 4 C-1.99 4.495 -1.99 4.495 -3 5 C-5.125 4.0625 -5.125 4.0625 -7 3 C-3.375 0 -3.375 0 0 0 Z " fill="#9F8457" transform="translate(268,241)"/>
<path d="M0 0 C3.96 0 7.92 0 12 0 C11.67 1.98 11.34 3.96 11 6 C10.67 4.68 10.34 3.36 10 2 C6.7 1.67 3.4 1.34 0 1 C0 0.67 0 0.34 0 0 Z " fill="#9C8C67" transform="translate(308,177)"/>
<path d="M0 0 C0.99 0.33 1.98 0.66 3 1 C2.01 3.97 1.02 6.94 0 10 C-0.33 10 -0.66 10 -1 10 C-1.125 2.25 -1.125 2.25 0 0 Z " fill="#958456" transform="translate(287,118)"/>
<path d="M0 0 C7.57142857 1.85714286 7.57142857 1.85714286 10 5 C9.67 5.66 9.34 6.32 9 7 C7.4972763 6.02501855 5.99788037 5.04490611 4.5 4.0625 C3.6646875 3.51722656 2.829375 2.97195313 1.96875 2.41015625 C1.3190625 1.94480469 0.669375 1.47945313 0 1 C0 0.67 0 0.34 0 0 Z " fill="#7B6948" transform="translate(240,258)"/>
<path d="M0 0 C2.31 0 4.62 0 7 0 C7.33 0.99 7.66 1.98 8 3 C7.34 3.66 6.68 4.32 6 5 C5.34 4.34 4.68 3.68 4 3 C1.93125966 2.3574765 1.93125966 2.3574765 0 2 C0 1.34 0 0.68 0 0 Z " fill="#9F895C" transform="translate(267,209)"/>
<path d="M0 0 C0.66 1.32 1.32 2.64 2 4 C1 5 1 5 -1.06640625 5.09765625 C-1.89011719 5.08605469 -2.71382813 5.07445312 -3.5625 5.0625 C-4.38878906 5.05347656 -5.21507812 5.04445313 -6.06640625 5.03515625 C-6.70449219 5.02355469 -7.34257812 5.01195312 -8 5 C-8 4.67 -8 4.34 -8 4 C-5.36 3.67 -2.72 3.34 0 3 C0 2.01 0 1.02 0 0 Z " fill="#A59264" transform="translate(281,340)"/>
<path d="M0 0 C1.65 0 3.3 0 5 0 C2.11912454 2.40072955 -0.56404834 4.47291037 -4 6 C-4 5.01 -4 4.02 -4 3 C-3.01 3 -2.02 3 -1 3 C-0.67 2.01 -0.34 1.02 0 0 Z " fill="#887650" transform="translate(245,294)"/>
<path d="M0 0 C0.66 0 1.32 0 2 0 C2 0.66 2 1.32 2 2 C2.99 2.33 3.98 2.66 5 3 C4.67 3.99 4.34 4.98 4 6 C2.68 5.34 1.36 4.68 0 4 C0 2.68 0 1.36 0 0 Z " fill="#9C8C5B" transform="translate(215,238)"/>
<path d="M0 0 C0.33 0 0.66 0 1 0 C0.53199289 4.05606165 0.12046792 7.46588679 -2 11 C-2.28571429 3.57142857 -2.28571429 3.57142857 0 0 Z " fill="#827049" transform="translate(317,183)"/>
<path d="M0 0 C2.46278801 2.46278801 2.99771255 4.70676982 4 8 C3.01 8 2.02 8 1 8 C-0.35439668 5.29120665 -0.06501451 2.99066732 0 0 Z " fill="#7F6B48" transform="translate(157,375)"/>
<path d="M0 0 C0.99 0.33 1.98 0.66 3 1 C2.01 2.32 1.02 3.64 0 5 C-0.99 4.67 -1.98 4.34 -3 4 C-2.67 3.01 -2.34 2.02 -2 1 C-1.34 0.67 -0.68 0.34 0 0 Z " fill="#A98E61" transform="translate(173,360)"/>
<path d="M0 0 C0.66 0 1.32 0 2 0 C2 2.97 2 5.94 2 9 C-0.37783838 6.62216162 -0.59009208 5.27926335 -1 2 C-0.67 1.34 -0.34 0.68 0 0 Z " fill="#C0A770" transform="translate(317,337)"/>
<path d="M0 0 C2.16874252 0.50603992 3.99967627 0.99983813 6 2 C6 2.66 6 3.32 6 4 C3.03 3.505 3.03 3.505 0 3 C0 2.01 0 1.02 0 0 Z " fill="#C7A562" transform="translate(269,303)"/>
<path d="M0 0 C1.32 0.66 2.64 1.32 4 2 C3.01 2.99 2.02 3.98 1 5 C-1.475 4.01 -1.475 4.01 -4 3 C-3.34 2.67 -2.68 2.34 -2 2 C-1.01 2.33 -0.02 2.66 1 3 C0.67 2.01 0.34 1.02 0 0 Z " fill="#9D8652" transform="translate(283,282)"/>
</svg>
